<svg width="286" height="90" viewBox="0 0 286 90" fill="none" xmlns="http://www.w3.org/2000/svg">
<path d="M52.136 73.904C51.7093 73.904 51.432 73.8187 51.304 73.648C51.176 73.52 51.112 73.3707 51.112 73.2C51.88 73.072 52.6267 72.496 53.352 71.472C54.0773 70.4907 54.44 69.3387 54.44 68.016C54.44 65.9253 53.7573 63.8987 52.392 61.936C51.0267 60.016 49.1067 58.2453 46.632 56.624C44.1573 55.0027 41.256 53.616 37.928 52.464C34.6427 51.2693 31.0373 50.3947 27.112 49.84C25.6613 51.888 24.0187 53.7653 22.184 55.472C20.392 57.2213 18.3867 58.608 16.168 59.632C13.992 60.6987 11.624 61.232 9.064 61.232C6.376 61.232 4.328 60.6133 2.92 59.376C1.512 58.1387 0.808 56.7093 0.808 55.088C0.808 53.5947 1.40533 52.1013 2.6 50.608C3.83733 49.072 5.69333 47.8133 8.168 46.832C10.6853 45.808 13.864 45.296 17.704 45.296C20.648 45.296 23.6347 45.552 26.664 46.064C27.7307 44.1867 28.6907 42.3093 29.544 40.432C30.3973 38.5547 31.144 36.784 31.784 35.12C27.56 34.9493 24.232 34.3093 21.8 33.2C19.368 32.048 17.64 30.6187 16.616 28.912C15.592 27.2053 15.08 25.456 15.08 23.664C15.08 21.4027 15.7627 19.2693 17.128 17.264C18.4933 15.216 20.3493 13.552 22.696 12.272C25.0427 10.992 27.6667 10.352 30.568 10.352C30.9093 10.352 31.1227 10.48 31.208 10.736C31.2933 10.992 31.336 11.2053 31.336 11.376C29.7147 11.376 28.136 11.7387 26.6 12.464C25.1067 13.1893 23.7627 14.1707 22.568 15.408C21.3733 16.6027 20.4133 17.9467 19.688 19.44C19.0053 20.9333 18.664 22.4693 18.664 24.048C18.664 25.584 19.0693 27.0987 19.88 28.592C20.6907 30.0427 22.0773 31.2587 24.04 32.24C26.0027 33.2213 28.7547 33.7547 32.296 33.84C32.68 32.8587 33 31.9627 33.256 31.152C33.5547 30.2987 33.8107 29.5733 34.024 28.976C35.048 25.904 36.136 22.8533 37.288 19.824C38.4827 16.7947 39.8267 14.0427 41.32 11.568C42.856 9.09333 44.6693 7.10933 46.76 5.616C48.8507 4.12267 51.3467 3.376 54.248 3.376C56.1253 3.376 57.576 3.90933 58.6 4.976C59.6667 6.04266 60.2 7.51466 60.2 9.392C60.2 11.2267 59.7733 13.2533 58.92 15.472C58.0667 17.648 56.872 19.824 55.336 22C53.8 24.176 51.9867 26.2027 49.896 28.08C47.8053 29.9573 45.5227 31.5147 43.048 32.752C40.5733 33.9893 37.9707 34.7573 35.24 35.056C34.6 36.4213 33.7893 38.1493 32.808 40.24C31.8267 42.288 30.6533 44.4 29.288 46.576C33 47.4293 36.4987 48.5813 39.784 50.032C43.112 51.4827 46.0347 53.1253 48.552 54.96C51.112 56.8373 53.1173 58.8213 54.568 60.912C56.0187 63.0453 56.744 65.1573 56.744 67.248C56.744 69.1253 56.2747 70.704 55.336 71.984C54.3973 73.264 53.3307 73.904 52.136 73.904ZM54.248 6.64C52.4133 6.64 50.6853 7.45067 49.064 9.072C47.4427 10.6507 45.8853 12.7627 44.392 15.408C42.9413 18.0107 41.512 20.912 40.104 24.112C38.696 27.312 37.288 30.4907 35.88 33.648C38.3973 33.3067 40.744 32.5387 42.92 31.344C45.096 30.1493 47.08 28.6987 48.872 26.992C50.664 25.2427 52.2 23.3867 53.48 21.424C54.76 19.4613 55.7413 17.5413 56.424 15.664C57.1067 13.744 57.448 12.0373 57.448 10.544C57.448 9.34933 57.192 8.41066 56.68 7.728C56.168 7.00267 55.3573 6.64 54.248 6.64ZM2.408 55.984C2.408 57.0507 2.984 57.968 4.136 58.736C5.288 59.5467 6.93067 59.952 9.064 59.952C12.2213 59.952 15.08 58.928 17.64 56.88C20.2 54.8747 22.4827 52.4213 24.488 49.52C22.2267 49.3067 19.9653 49.2 17.704 49.2C14.2053 49.2 11.3253 49.5627 9.064 50.288C6.80267 50.9707 5.11733 51.8453 4.008 52.912C2.94133 53.936 2.408 54.96 2.408 55.984ZM64.4765 54.192C63.4952 54.192 62.6205 53.9147 61.8525 53.36C61.1272 52.8053 60.7645 51.6747 60.7645 49.968C60.7645 49.2427 60.8072 48.56 60.8925 47.92C61.0205 47.28 61.1698 46.5973 61.3405 45.872C60.9565 46.512 60.4232 47.3013 59.7405 48.24C59.0578 49.1787 58.2898 50.096 57.4365 50.992C56.6258 51.888 55.7725 52.6347 54.8765 53.232C54.0232 53.8293 53.2125 54.128 52.4445 54.128C51.3352 54.128 50.4392 53.6373 49.7565 52.656C49.0738 51.632 48.7325 50.3093 48.7325 48.688C48.7325 46.9387 49.1378 45.0613 49.9485 43.056C50.7592 41.0507 51.8685 39.1307 53.2765 37.296C54.6845 35.4613 56.3058 33.968 58.1405 32.816C59.9752 31.664 61.8952 31.088 63.9005 31.088C64.8818 31.088 65.8205 31.2587 66.7165 31.6C67.6125 31.8987 68.4018 32.4107 69.0845 33.136C69.3832 33.4347 69.5325 33.776 69.5325 34.16C69.5325 34.416 69.4258 34.6293 69.2125 34.8C68.9992 34.9707 68.7218 35.0133 68.3805 34.928C67.9112 33.4347 66.9085 32.688 65.3725 32.688C64.6472 32.688 63.8152 32.9227 62.8765 33.392C61.7245 33.9893 60.4872 34.9493 59.1645 36.272C57.8845 37.552 56.6685 39.024 55.5165 40.688C54.4072 42.3093 53.4898 43.952 52.7645 45.616C52.0392 47.28 51.6765 48.7947 51.6765 50.16C51.6765 51.568 52.2098 52.272 53.2765 52.272C54.2152 52.272 55.1752 51.824 56.1565 50.928C57.1805 50.032 58.1405 48.9227 59.0365 47.6C59.9752 46.2347 60.8285 44.8907 61.5965 43.568C62.3645 42.2453 62.9618 41.1787 63.3885 40.368C64.0285 39.216 64.6258 38.256 65.1805 37.488C65.7352 36.72 66.5245 36.336 67.5485 36.336C68.0178 36.336 68.4872 36.4 68.9565 36.528C69.4258 36.656 69.9165 36.6773 70.4285 36.592C69.1485 37.872 68.0178 39.3867 67.0365 41.136C66.0978 42.8853 65.3725 44.6133 64.8605 46.32C64.3485 47.984 64.0925 49.392 64.0925 50.544C64.0925 51.824 64.5192 52.464 65.3725 52.464C66.0552 52.464 66.7805 52.08 67.5485 51.312C68.3592 50.544 69.1272 49.584 69.8525 48.432C70.6205 47.2373 71.3245 46.0427 71.9645 44.848C72.6045 43.6107 73.1165 42.544 73.5005 41.648C73.7138 41.648 73.8845 41.6693 74.0125 41.712C74.1832 41.7547 74.2685 41.9253 74.2685 42.224C74.2258 42.3947 74.1405 42.5867 74.0125 42.8C73.9272 42.9707 73.7778 43.2907 73.5645 43.76C73.2232 44.4427 72.7538 45.36 72.1565 46.512C71.5592 47.664 70.8552 48.8373 70.0445 50.032C69.2338 51.184 68.3592 52.1653 67.4205 52.976C66.4818 53.7867 65.5005 54.192 64.4765 54.192ZM79.03 54.256C76.6833 54.256 74.934 53.6373 73.782 52.4C72.6727 51.1627 72.118 49.4987 72.118 47.408C72.118 46.4267 72.31 45.296 72.694 44.016C73.078 42.736 73.59 41.4347 74.23 40.112C74.87 38.7893 75.574 37.616 76.342 36.592C77.5793 34.928 78.9447 33.648 80.438 32.752C81.9313 31.8133 83.446 31.344 84.982 31.344C86.6033 31.344 87.7553 31.7067 88.438 32.432C89.1633 33.1147 89.526 33.9253 89.526 34.864C89.526 35.76 89.3127 36.5707 88.886 37.296C88.4593 37.9787 87.9687 38.5333 87.414 38.96C86.902 39.3867 86.454 39.6 86.07 39.6C85.7287 39.6 85.43 39.472 85.174 39.216C85.5153 38.7893 85.878 38.2773 86.262 37.68C86.646 37.0827 86.9233 36.5067 87.094 35.952C87.2647 35.44 87.35 34.928 87.35 34.416C87.35 33.3067 86.838 32.752 85.814 32.752C84.5767 32.752 83.3607 33.264 82.166 34.288C81.014 35.312 79.9473 36.6347 78.966 38.256C78.0273 39.8347 77.2593 41.52 76.662 43.312C76.1073 45.0613 75.83 46.6827 75.83 48.176C75.83 49.5413 76.1073 50.672 76.662 51.568C77.2593 52.464 78.2193 52.912 79.542 52.912C81.2913 52.912 82.8273 52.3573 84.15 51.248C85.4727 50.096 86.646 48.6667 87.67 46.96C88.694 45.2107 89.59 43.44 90.358 41.648C90.5287 41.648 90.6993 41.6907 90.87 41.776C91.0407 41.8187 91.126 41.968 91.126 42.224C90.2727 44.3573 89.27 46.3413 88.118 48.176C86.966 50.0107 85.6433 51.4827 84.15 52.592C82.6993 53.7013 80.9927 54.256 79.03 54.256ZM94.9465 54.256C93.3678 54.256 91.9385 53.744 90.6585 52.72C89.4212 51.696 88.8025 50.1387 88.8025 48.048C88.8025 46.2987 89.1865 44.4427 89.9545 42.48C90.7652 40.5173 91.8105 38.6827 93.0905 36.976C94.4132 35.2267 95.8638 33.8187 97.4425 32.752C99.0638 31.6427 100.685 31.088 102.307 31.088C103.117 31.088 103.907 31.3227 104.675 31.792C105.443 32.2613 105.827 33.072 105.827 34.224C105.827 35.2907 105.421 36.464 104.611 37.744C103.8 39.024 102.648 40.2187 101.155 41.328C100.515 41.7973 99.7038 42.2453 98.7225 42.672C97.7412 43.0987 96.7598 43.4613 95.7785 43.76C94.7972 44.016 93.9865 44.144 93.3465 44.144C93.1332 44.656 92.9198 45.3387 92.7065 46.192C92.5358 47.0453 92.4505 47.92 92.4505 48.816C92.4505 49.8827 92.6638 50.8427 93.0905 51.696C93.5172 52.5493 94.3065 52.976 95.4585 52.976C96.8665 52.976 98.1678 52.5707 99.3625 51.76C100.6 50.9493 101.688 49.9253 102.627 48.688C103.608 47.4507 104.44 46.192 105.123 44.912C105.805 43.632 106.339 42.544 106.723 41.648C107.235 41.648 107.491 41.84 107.491 42.224C106.936 43.4187 106.296 44.72 105.571 46.128C104.888 47.536 104.056 48.8587 103.075 50.096C102.136 51.2907 100.984 52.2933 99.6185 53.104C98.2958 53.872 96.7385 54.256 94.9465 54.256ZM93.7945 42.992C94.3918 42.992 95.3945 42.7787 96.8025 42.352C98.2105 41.8827 99.4905 41.1573 100.643 40.176C101.752 39.1947 102.605 38.128 103.203 36.976C103.8 35.7813 104.099 34.7787 104.099 33.968C104.099 33.0293 103.757 32.56 103.075 32.56C102.563 32.56 101.859 32.9013 100.963 33.584C100.067 34.2667 98.9572 35.4187 97.6345 37.04C96.8238 38.064 96.0558 39.1733 95.3305 40.368C94.6052 41.5627 94.0932 42.4373 93.7945 42.992ZM133.587 65.072C131.112 65.072 128.659 64.7733 126.227 64.176C123.838 63.6213 121.662 62.6827 119.699 61.36C117.779 60.0373 116.243 58.2453 115.091 55.984C113.939 53.7653 113.363 50.992 113.363 47.664C113.363 45.2747 113.768 43.0347 114.579 40.944C115.39 38.8533 116.456 37.168 117.779 35.888C119.102 34.5653 120.51 33.904 122.003 33.904C122.515 33.904 122.771 34.032 122.771 34.288C122.771 34.544 122.494 34.7573 121.939 34.928C120.872 35.184 119.827 35.8453 118.803 36.912C117.822 37.936 117.011 39.3013 116.371 41.008C115.731 42.7147 115.411 44.7413 115.411 47.088C115.411 49.904 115.923 52.208 116.947 54C118.014 55.792 119.379 57.2 121.043 58.224C122.707 59.248 124.456 59.952 126.291 60.336C128.168 60.7627 129.939 60.976 131.603 60.976C136.296 60.976 140.584 60.2293 144.467 58.736C148.392 57.2853 151.912 55.2587 155.027 52.656C158.184 50.0533 160.915 47.0667 163.219 43.696C165.566 40.2827 167.507 36.6347 169.043 32.752C169.086 32.624 169.128 32.496 169.171 32.368C168.488 32.4107 167.912 32.4747 167.443 32.56C166.974 32.6453 166.526 32.7733 166.099 32.944C165.16 33.2853 164.456 33.456 163.987 33.456C163.731 33.456 163.603 33.2853 163.603 32.944C163.603 32.3467 163.902 31.728 164.499 31.088C165.139 30.4053 165.907 30.0427 166.803 30C167.144 30 167.614 30 168.211 30C168.851 29.9573 169.512 29.936 170.195 29.936C171.006 27.888 171.88 25.776 172.819 23.6C173.758 21.424 174.675 19.3547 175.571 17.392C176.467 15.4293 177.256 13.7227 177.939 12.272C178.622 10.8213 179.112 9.79733 179.411 9.2C177.064 9.456 174.632 9.69067 172.115 9.904C169.598 10.0747 167.123 10.3733 164.691 10.8C162.259 11.184 159.955 11.824 157.779 12.72C153.768 14.384 150.846 16.5813 149.011 19.312C147.219 22 146.323 25.008 146.323 28.336C146.323 30.4267 146.899 32.1547 148.051 33.52C149.203 34.8853 150.718 35.568 152.595 35.568C154.302 35.568 155.795 35.056 157.075 34.032C158.355 32.9653 159.358 31.6427 160.083 30.064C160.851 28.4427 161.235 26.8427 161.235 25.264C161.235 24.752 161.171 24.304 161.043 23.92C160.958 23.4933 160.872 23.1947 160.787 23.024C160.787 22.7253 160.915 22.576 161.171 22.576C161.726 22.576 162.088 22.9813 162.259 23.792C162.472 24.56 162.579 25.328 162.579 26.096C162.579 27.8027 162.11 29.488 161.171 31.152C160.275 32.816 159.016 34.2027 157.395 35.312C155.816 36.3787 154.024 36.912 152.019 36.912C150.227 36.912 148.584 36.464 147.091 35.568C145.64 34.6293 144.467 33.3707 143.571 31.792C142.675 30.2133 142.227 28.464 142.227 26.544C142.227 23.8133 142.846 21.4027 144.083 19.312C145.32 17.1787 147.006 15.3653 149.139 13.872C151.315 12.3787 153.747 11.248 156.435 10.48C159.038 9.712 161.726 9.17867 164.499 8.88C167.315 8.58133 170.067 8.368 172.755 8.24C175.486 8.06933 177.982 7.87733 180.243 7.664C180.67 6.896 181.203 6.10666 181.843 5.296C182.526 4.48533 183.272 3.80266 184.083 3.248C184.894 2.65066 185.726 2.352 186.579 2.352C187.219 2.352 187.774 2.52266 188.243 2.864C188.712 3.16266 188.947 3.65333 188.947 4.336C188.947 5.36 188.542 6.21333 187.731 6.896C186.963 7.536 185.982 8.02666 184.787 8.368C183.592 8.70933 182.419 8.96533 181.267 9.136C180.798 10.032 180.243 11.2907 179.603 12.912C178.963 14.5333 178.259 16.3467 177.491 18.352C176.766 20.3147 176.019 22.32 175.251 24.368C174.526 26.3733 173.843 28.2507 173.203 30C174.654 30.0853 176.339 30.192 178.259 30.32C180.222 30.4053 182.227 30.512 184.275 30.64C186.323 30.7253 188.264 30.8107 190.099 30.896C191.976 30.9813 193.512 31.024 194.707 31.024C195.176 29.8293 195.667 28.592 196.179 27.312C198.824 20.8693 201.256 15.792 203.475 12.08C205.694 8.368 207.464 6.29866 208.787 5.872C210.494 5.31733 211.667 5.04 212.307 5.04C212.563 5.04 212.691 5.08266 212.691 5.168C212.691 5.296 212.392 5.50933 211.795 5.808C211.496 5.97867 210.878 6.72533 209.939 8.048C209.043 9.37066 207.955 11.184 206.675 13.488C205.395 15.7493 204.051 18.3733 202.643 21.36C201.235 24.3467 199.891 27.5893 198.611 31.088C199.336 31.088 200.062 31.0667 200.787 31.024C201.555 30.9813 202.131 30.9387 202.515 30.896C202.984 30.8107 203.368 30.704 203.667 30.576C204.008 30.448 204.264 30.384 204.435 30.384C204.648 30.384 204.755 30.4907 204.755 30.704C204.755 30.832 204.584 31.0453 204.243 31.344C203.518 31.856 202.643 32.304 201.619 32.688C200.595 33.072 199.315 33.3067 197.779 33.392C196.798 36.208 195.88 39.1093 195.027 42.096C194.174 45.04 193.747 47.7707 193.747 50.288C193.747 51.2267 193.918 52.1227 194.259 52.976C194.6 53.8293 195.24 54.256 196.179 54.256C197.288 54.256 198.504 53.6587 199.827 52.464C201.15 51.2267 202.451 49.648 203.731 47.728C205.011 45.808 206.078 43.7813 206.931 41.648C207.443 41.648 207.699 41.84 207.699 42.224C206.675 44.5707 205.459 46.8533 204.051 49.072C202.686 51.2907 201.171 53.104 199.507 54.512C197.886 55.9627 196.179 56.688 194.387 56.688C192.979 56.688 191.827 56.176 190.931 55.152C190.078 54.128 189.651 52.6133 189.651 50.608C189.651 48.6453 190.035 46.1493 190.803 43.12C191.614 40.0907 192.638 36.848 193.875 33.392C192.595 33.3493 191.016 33.2853 189.139 33.2C187.262 33.1147 185.278 33.0293 183.187 32.944C181.096 32.816 179.091 32.7093 177.171 32.624C175.251 32.5387 173.651 32.4747 172.371 32.432C172.2 32.944 172.03 33.4347 171.859 33.904C171.688 34.3733 171.539 34.8 171.411 35.184C170.131 38.9387 168.339 42.5867 166.035 46.128C163.774 49.6693 161.043 52.8693 157.843 55.728C154.686 58.5867 151.059 60.848 146.963 62.512C142.91 64.2187 138.451 65.072 133.587 65.072ZM182.483 7.536C182.91 7.45066 183.272 7.36533 183.571 7.28C183.912 7.19466 184.232 7.10933 184.531 7.024C185.299 6.768 185.832 6.46933 186.131 6.128C186.472 5.78666 186.643 5.488 186.643 5.232C186.643 4.72 186.344 4.464 185.747 4.464C185.448 4.464 185.086 4.592 184.659 4.848C184.232 5.104 183.806 5.53067 183.379 6.128C183.208 6.384 183.038 6.64 182.867 6.896C182.739 7.10933 182.611 7.32267 182.483 7.536ZM210.741 54C208.992 54 207.69 53.3813 206.837 52.144C206.026 50.864 205.621 49.328 205.621 47.536C205.621 45.872 205.941 44.144 206.581 42.352C207.264 40.3893 208.202 38.5973 209.397 36.976C210.634 35.3547 211.978 34.0533 213.429 33.072C214.922 32.048 216.394 31.536 217.845 31.536C219.594 31.536 220.874 32.1333 221.685 33.328C222.538 34.5227 222.965 36.0373 222.965 37.872C222.965 39.152 222.752 40.496 222.325 41.904C221.898 43.312 221.322 44.6987 220.597 46.064C221.152 46.6187 221.941 46.896 222.965 46.896C224.16 46.896 225.184 46.512 226.037 45.744C226.89 44.976 227.722 43.6107 228.533 41.648C229.045 41.648 229.301 41.84 229.301 42.224C228.49 44.1867 227.552 45.6373 226.485 46.576C225.461 47.472 224.138 47.8987 222.517 47.856C221.536 47.856 220.725 47.5787 220.085 47.024C218.89 48.9867 217.461 50.6507 215.797 52.016C214.176 53.3387 212.49 54 210.741 54ZM211.637 52.592C212.618 52.592 213.6 52.1867 214.581 51.376C215.562 50.5227 216.458 49.5627 217.269 48.496C218.08 47.4293 218.656 46.512 218.997 45.744C218.314 44.5067 217.909 43.5893 217.781 42.992C217.696 42.352 217.653 41.8827 217.653 41.584C217.653 40.7733 217.866 40.1547 218.293 39.728C218.72 39.3013 219.146 39.088 219.573 39.088C220.17 39.088 220.682 39.344 221.109 39.856C221.194 39.3867 221.258 38.96 221.301 38.576C221.344 38.1493 221.365 37.744 221.365 37.36C221.365 36.2507 221.152 35.3547 220.725 34.672C220.341 33.9467 219.722 33.584 218.869 33.584C217.973 33.584 217.034 33.968 216.053 34.736C215.072 35.504 214.133 36.528 213.237 37.808C212.384 39.088 211.637 40.5173 210.997 42.096C210.442 43.4187 210.016 44.6773 209.717 45.872C209.418 47.024 209.269 48.0907 209.269 49.072C209.269 50.1387 209.461 50.992 209.845 51.632C210.229 52.272 210.826 52.592 211.637 52.592ZM230.382 54C229.913 54 229.337 53.8933 228.654 53.68C228.014 53.4667 227.438 53.0827 226.926 52.528C226.457 51.9307 226.222 51.056 226.222 49.904C226.222 48.7947 226.585 47.5147 227.31 46.064C228.035 44.6133 228.675 43.3333 229.23 42.224C228.761 42.224 228.526 42.032 228.526 41.648C228.569 41.52 228.761 41.1147 229.102 40.432C229.443 39.7493 229.849 38.9387 230.318 38C230.787 37.0613 231.235 36.1653 231.662 35.312C232.131 34.416 232.494 33.7333 232.75 33.264C233.262 32.3253 234.073 31.856 235.182 31.856H239.15C238.425 32.4107 237.763 33.0293 237.166 33.712C236.611 34.352 235.907 35.5467 235.054 37.296C235.054 37.296 234.905 37.5947 234.606 38.192C234.307 38.7893 233.923 39.5573 233.454 40.496C233.027 41.392 232.579 42.3093 232.11 43.248C231.683 44.1867 231.321 44.976 231.022 45.616C230.467 46.8107 230.105 47.7707 229.934 48.496C229.763 49.1787 229.678 49.8187 229.678 50.416C229.678 51.824 230.147 52.528 231.086 52.528C232.11 52.528 233.347 51.696 234.798 50.032C235.993 48.624 237.166 46.9387 238.318 44.976C239.47 43.0133 240.558 40.9867 241.582 38.896C242.649 36.8053 243.587 34.928 244.398 33.264C244.867 32.3253 245.699 31.856 246.894 31.856H250.414C249.475 32.624 248.515 33.776 247.534 35.312C246.595 36.848 245.55 38.8107 244.398 41.2C244.099 41.84 243.715 42.6507 243.246 43.632C242.777 44.6133 242.35 45.6587 241.966 46.768C241.625 47.8773 241.454 48.9867 241.454 50.096C241.454 51.5893 241.987 52.336 243.054 52.336C244.505 52.336 245.913 51.3333 247.278 49.328C248.643 47.3227 249.987 44.7627 251.31 41.648C251.651 41.648 251.843 41.6693 251.886 41.712C251.971 41.7547 252.035 41.9253 252.078 42.224C251.609 43.376 251.033 44.6347 250.35 46C249.71 47.3227 248.963 48.6027 248.11 49.84C247.299 51.0773 246.382 52.08 245.358 52.848C244.377 53.616 243.289 54 242.094 54C241.027 54 240.153 53.616 239.47 52.848C238.787 52.0373 238.446 50.9067 238.446 49.456C238.446 48.304 238.659 47.0667 239.086 45.744C238.361 47.024 237.529 48.304 236.59 49.584C235.651 50.864 234.649 51.9307 233.582 52.784C232.515 53.5947 231.449 54 230.382 54ZM252.683 54.256C250.933 54.256 249.504 53.7227 248.395 52.656C247.328 51.5467 246.794 50.3947 246.794 49.2C246.794 48.2187 247.05 47.3227 247.562 46.512C248.032 45.6587 248.672 45.232 249.483 45.232L249.547 45.104C250.485 43.3973 251.381 41.6693 252.235 39.92C253.131 38.128 254.112 36.2293 255.179 34.224C256.075 32.56 257.035 31.1947 258.059 30.128C259.125 29.0613 260.363 28.528 261.771 28.528C262.112 28.528 262.581 28.6133 263.179 28.784C263.776 28.912 264.075 29.2107 264.075 29.68C264.075 30.0213 263.883 30.192 263.499 30.192C263.2 30.192 262.859 30.1067 262.475 29.936C262.133 29.7653 261.856 29.68 261.643 29.68C260.832 29.68 260.149 30.1493 259.595 31.088C259.04 32.0267 258.763 33.0293 258.763 34.096C258.763 35.248 258.955 36.2933 259.339 37.232C259.723 38.128 260.171 39.0027 260.683 39.856C261.195 40.7093 261.643 41.584 262.027 42.48C262.411 43.3333 262.603 44.272 262.603 45.296C262.603 47.344 262.197 49.008 261.387 50.288C260.619 51.5253 259.595 52.464 258.315 53.104H258.379C260.64 53.104 262.496 52.0587 263.947 49.968C265.44 47.8347 266.912 45.0613 268.363 41.648C268.875 41.648 269.131 41.84 269.131 42.224C268.32 44.144 267.424 46.0213 266.443 47.856C265.461 49.6907 264.309 51.2053 262.987 52.4C261.664 53.5947 260.043 54.192 258.123 54.192C257.312 54.192 256.565 54.1067 255.883 53.936C254.901 54.1493 253.835 54.256 252.683 54.256ZM251.723 47.472C251.723 48.496 251.957 49.4773 252.427 50.416C252.896 51.3547 253.749 52.0587 254.987 52.528C256.096 51.888 256.949 50.9067 257.547 49.584C258.187 48.2187 258.507 46.8107 258.507 45.36C258.507 44.1653 258.379 42.9493 258.123 41.712C257.867 40.4747 257.589 39.2587 257.291 38.064C257.035 36.8693 256.907 35.8027 256.907 34.864C256.907 34.5653 256.907 34.3093 256.907 34.096C256.949 33.84 256.992 33.6053 257.035 33.392C256.267 34.544 255.477 35.888 254.667 37.424C253.899 38.96 253.152 40.432 252.427 41.84C251.701 43.248 251.04 44.4 250.443 45.296C251.296 45.424 251.723 46.1493 251.723 47.472ZM249.611 50.672C249.611 51.3547 249.845 51.952 250.315 52.464C250.784 52.976 251.488 53.232 252.427 53.232C252.853 53.232 253.259 53.1893 253.643 53.104C252.747 52.5493 252.021 51.8453 251.467 50.992C250.955 50.1387 250.699 49.1573 250.699 48.048C250.315 48.4747 250.037 48.9227 249.867 49.392C249.696 49.8187 249.611 50.2453 249.611 50.672ZM273.009 54.256C271.43 54.256 270.001 53.744 268.721 52.72C267.484 51.696 266.865 50.1387 266.865 48.048C266.865 46.2987 267.249 44.4427 268.017 42.48C268.828 40.5173 269.873 38.6827 271.153 36.976C272.476 35.2267 273.926 33.8187 275.505 32.752C277.126 31.6427 278.748 31.088 280.369 31.088C281.18 31.088 281.969 31.3227 282.737 31.792C283.505 32.2613 283.889 33.072 283.889 34.224C283.889 35.2907 283.484 36.464 282.673 37.744C281.862 39.024 280.71 40.2187 279.217 41.328C278.577 41.7973 277.766 42.2453 276.785 42.672C275.804 43.0987 274.822 43.4613 273.841 43.76C272.86 44.016 272.049 44.144 271.409 44.144C271.196 44.656 270.982 45.3387 270.769 46.192C270.598 47.0453 270.513 47.92 270.513 48.816C270.513 49.8827 270.726 50.8427 271.153 51.696C271.58 52.5493 272.369 52.976 273.521 52.976C274.929 52.976 276.23 52.5707 277.425 51.76C278.662 50.9493 279.75 49.9253 280.689 48.688C281.67 47.4507 282.502 46.192 283.185 44.912C283.868 43.632 284.401 42.544 284.785 41.648C285.297 41.648 285.553 41.84 285.553 42.224C284.998 43.4187 284.358 44.72 283.633 46.128C282.95 47.536 282.118 48.8587 281.137 50.096C280.198 51.2907 279.046 52.2933 277.681 53.104C276.358 53.872 274.801 54.256 273.009 54.256ZM271.857 42.992C272.454 42.992 273.457 42.7787 274.865 42.352C276.273 41.8827 277.553 41.1573 278.705 40.176C279.814 39.1947 280.668 38.128 281.265 36.976C281.862 35.7813 282.161 34.7787 282.161 33.968C282.161 33.0293 281.82 32.56 281.137 32.56C280.625 32.56 279.921 32.9013 279.025 33.584C278.129 34.2667 277.02 35.4187 275.697 37.04C274.886 38.064 274.118 39.1733 273.393 40.368C272.668 41.5627 272.156 42.4373 271.857 42.992Z" fill="white"/>
<path d="M76.58 71.96L77.06 72L76.86 81.82C76.8467 82.5267 76.9667 83.0267 77.22 83.32C77.4733 83.6133 77.92 83.76 78.56 83.76C78.5867 83.76 78.6 83.8 78.6 83.88C78.6 83.96 78.5867 84 78.56 84C78.1867 84 77.9 83.9933 77.7 83.98L76.62 83.96L75.58 83.98C75.3933 83.9933 75.1267 84 74.78 84C74.7533 84 74.74 83.96 74.74 83.88C74.74 83.8 74.7533 83.76 74.78 83.76C75.34 83.76 75.74 83.6133 75.98 83.32C76.2333 83.0133 76.3667 82.5133 76.38 81.82L76.58 71.96ZM90.24 83.76C90.28 83.76 90.3 83.8 90.3 83.88C90.3 83.96 90.28 84 90.24 84C89.8267 84 89.5 83.9933 89.26 83.98L87.88 83.96L86.6 83.98C86.3867 83.9933 86.0867 84 85.7 84C85.6733 84 85.66 83.96 85.66 83.88C85.66 83.8 85.6733 83.76 85.7 83.76C86.1533 83.76 86.4867 83.7267 86.7 83.66C86.9267 83.58 87.0733 83.4467 87.14 83.26C87.22 83.0733 87.2467 82.78 87.22 82.38L86.84 72.72L87.5 71.8L82.3 83.86C82.2733 83.9133 82.22 83.94 82.14 83.94C82.0733 83.94 82.0133 83.9133 81.96 83.86L76.94 73.16C76.7133 72.6667 76.4333 72.3067 76.1 72.08C75.78 71.8533 75.3867 71.74 74.92 71.74C74.8933 71.74 74.88 71.7 74.88 71.62C74.88 71.54 74.8933 71.5 74.92 71.5L75.66 71.52C75.7933 71.5333 75.98 71.54 76.22 71.54C76.46 71.54 76.66 71.5333 76.82 71.52C76.9933 71.5067 77.1267 71.5 77.22 71.5C77.3933 71.5 77.5333 71.5667 77.64 71.7C77.76 71.82 77.9267 72.1 78.14 72.54L82.7 82.14L82.08 83.18L86.96 72C87.1067 71.6667 87.3067 71.5 87.56 71.5C87.6267 71.5 87.72 71.5067 87.84 71.52C87.9733 71.5333 88.1467 71.54 88.36 71.54L89.3 71.52C89.4467 71.5067 89.6667 71.5 89.96 71.5C89.9867 71.5 90 71.54 90 71.62C90 71.7 89.9867 71.74 89.96 71.74C89.28 71.74 88.7933 71.84 88.5 72.04C88.22 72.2267 88.0933 72.5867 88.12 73.12L88.52 82.38C88.5333 82.7933 88.58 83.0933 88.66 83.28C88.7533 83.4667 88.9133 83.5933 89.14 83.66C89.3667 83.7267 89.7333 83.76 90.24 83.76ZM99.3192 76.28C99.3592 76.28 99.3792 76.32 99.3792 76.4C99.3792 76.48 99.3592 76.52 99.3192 76.52C98.9859 76.52 98.6926 76.64 98.4392 76.88C98.1992 77.1067 97.9792 77.5 97.7792 78.06L95.3392 84.56C94.8459 85.8533 94.3792 86.86 93.9392 87.58C93.5126 88.3133 93.0659 88.8333 92.5992 89.14C92.1459 89.46 91.6192 89.62 91.0192 89.62C90.7259 89.62 90.4859 89.5533 90.2992 89.42C90.0992 89.2867 89.9992 89.0933 89.9992 88.84C89.9992 88.6533 90.0592 88.5067 90.1792 88.4C90.2992 88.2933 90.4459 88.24 90.6192 88.24C90.7926 88.24 90.9392 88.26 91.0592 88.3C91.1792 88.34 91.3059 88.4067 91.4392 88.5C91.4659 88.5133 91.5392 88.5533 91.6592 88.62C91.7926 88.6867 91.9526 88.72 92.1392 88.72C92.4726 88.72 92.7859 88.5667 93.0792 88.26C93.3726 87.9667 93.6859 87.4667 94.0192 86.76C94.3659 86.0533 94.7792 85.0667 95.2592 83.8L95.2392 84.36L92.0792 77.94C91.7726 77.3533 91.5392 76.9733 91.3792 76.8C91.2192 76.6133 91.0126 76.52 90.7592 76.52C90.7326 76.52 90.7192 76.48 90.7192 76.4C90.7192 76.32 90.7326 76.28 90.7592 76.28L91.4392 76.3C91.5992 76.3133 91.8192 76.32 92.0992 76.32L93.3792 76.3C93.5659 76.2867 93.8259 76.28 94.1592 76.28C94.1859 76.28 94.1992 76.32 94.1992 76.4C94.1992 76.48 94.1859 76.52 94.1592 76.52C93.3859 76.52 92.9992 76.6733 92.9992 76.98C92.9992 77.06 93.0326 77.1667 93.0992 77.3L95.8392 82.94L95.3792 83.76L97.3392 78.12C97.4459 77.8 97.4992 77.5467 97.4992 77.36C97.4992 77.0533 97.3792 76.84 97.1392 76.72C96.8992 76.5867 96.5059 76.52 95.9592 76.52C95.9326 76.52 95.9192 76.48 95.9192 76.4C95.9192 76.32 95.9326 76.28 95.9592 76.28C96.3192 76.28 96.5926 76.2867 96.7792 76.3L97.9792 76.32L98.6992 76.3C98.8326 76.2867 99.0392 76.28 99.3192 76.28ZM107.778 82.3C107.778 82.6867 107.818 82.9667 107.898 83.14C107.978 83.3133 108.125 83.4333 108.338 83.5C108.551 83.5533 108.898 83.58 109.378 83.58H111.558C112.318 83.58 112.925 83.3467 113.378 82.88C113.831 82.4133 114.131 81.7667 114.278 80.94C114.278 80.9 114.311 80.8867 114.378 80.9C114.458 80.9 114.498 80.92 114.498 80.96C114.378 82.0667 114.318 82.98 114.318 83.7C114.318 83.8067 114.298 83.8867 114.258 83.94C114.218 83.98 114.138 84 114.018 84H104.778C104.751 84 104.738 83.96 104.738 83.88C104.738 83.8 104.751 83.76 104.778 83.76C105.285 83.76 105.651 83.7267 105.878 83.66C106.118 83.5933 106.278 83.4667 106.358 83.28C106.438 83.08 106.478 82.78 106.478 82.38V73.12C106.478 72.72 106.438 72.4267 106.358 72.24C106.278 72.0533 106.118 71.9267 105.878 71.86C105.651 71.78 105.285 71.74 104.778 71.74C104.751 71.74 104.738 71.7 104.738 71.62C104.738 71.54 104.751 71.5 104.778 71.5L105.758 71.52C106.318 71.5467 106.771 71.56 107.118 71.56C107.491 71.56 107.958 71.5467 108.518 71.52L109.478 71.5C109.518 71.5 109.538 71.54 109.538 71.62C109.538 71.7 109.518 71.74 109.478 71.74C108.985 71.74 108.618 71.78 108.378 71.86C108.138 71.9267 107.978 72.06 107.898 72.26C107.818 72.4467 107.778 72.74 107.778 73.14V82.3ZM115.802 84C115.776 84 115.762 83.96 115.762 83.88C115.762 83.8 115.776 83.76 115.802 83.76C116.162 83.76 116.429 83.7267 116.602 83.66C116.789 83.58 116.916 83.4467 116.982 83.26C117.049 83.0733 117.082 82.78 117.082 82.38V78.64C117.082 78.16 117.029 77.8133 116.922 77.6C116.829 77.3867 116.662 77.28 116.422 77.28C116.182 77.28 115.882 77.3733 115.522 77.56H115.502C115.449 77.56 115.409 77.5267 115.382 77.46C115.356 77.3933 115.362 77.3467 115.402 77.32L118.002 76.12L118.082 76.1C118.109 76.1 118.142 76.12 118.182 76.16C118.222 76.1867 118.242 76.22 118.242 76.26C118.242 76.3533 118.236 76.62 118.222 77.06C118.209 77.5 118.202 78.02 118.202 78.62V82.38C118.202 82.78 118.236 83.0733 118.302 83.26C118.369 83.4467 118.489 83.58 118.662 83.66C118.836 83.7267 119.102 83.76 119.462 83.76C119.502 83.76 119.522 83.8 119.522 83.88C119.522 83.96 119.502 84 119.462 84C119.156 84 118.909 83.9933 118.722 83.98L117.642 83.96L116.562 83.98C116.376 83.9933 116.122 84 115.802 84ZM117.482 73.76C117.216 73.76 117.002 73.6867 116.842 73.54C116.682 73.3933 116.602 73.1867 116.602 72.92C116.602 72.6533 116.682 72.4467 116.842 72.3C117.002 72.1533 117.216 72.08 117.482 72.08C117.749 72.08 117.956 72.1533 118.102 72.3C118.249 72.4467 118.322 72.6533 118.322 72.92C118.322 73.1867 118.249 73.3933 118.102 73.54C117.956 73.6867 117.749 73.76 117.482 73.76ZM120.851 84C120.811 84 120.791 83.96 120.791 83.88C120.791 83.8 120.811 83.76 120.851 83.76C121.251 83.76 121.544 83.7267 121.731 83.66C121.918 83.58 122.044 83.4467 122.111 83.26C122.191 83.0733 122.231 82.78 122.231 82.38V77.88C122.231 77.5333 122.198 77.2933 122.131 77.16C122.064 77.0133 121.938 76.92 121.751 76.88C121.564 76.8267 121.238 76.8 120.771 76.8C120.731 76.8 120.711 76.76 120.711 76.68C120.711 76.5867 120.731 76.54 120.771 76.54C121.318 76.54 121.684 76.48 121.871 76.36C122.071 76.2267 122.178 75.9867 122.191 75.64C122.258 73.48 122.651 71.9133 123.371 70.94C124.104 69.9667 125.178 69.48 126.591 69.48C127.271 69.48 127.824 69.5867 128.251 69.8C128.691 70 128.911 70.2467 128.911 70.54C128.911 70.74 128.838 70.9 128.691 71.02C128.558 71.1267 128.398 71.18 128.211 71.18C128.051 71.18 127.911 71.14 127.791 71.06C127.684 70.98 127.564 70.8467 127.431 70.66C127.218 70.38 126.991 70.1733 126.751 70.04C126.524 69.8933 126.238 69.82 125.891 69.82C125.118 69.82 124.504 70.2667 124.051 71.16C123.598 72.0533 123.371 73.4067 123.371 75.22V82.38C123.371 82.7933 123.418 83.0933 123.511 83.28C123.604 83.4667 123.784 83.5933 124.051 83.66C124.318 83.7267 124.744 83.76 125.331 83.76C125.371 83.76 125.391 83.8 125.391 83.88C125.391 83.96 125.371 84 125.331 84L124.051 83.98C123.771 83.9667 123.344 83.96 122.771 83.96L121.651 83.98C121.464 83.9933 121.198 84 120.851 84ZM125.871 77.26C125.018 77.0467 124.018 76.94 122.871 76.94V76.5C123.684 76.5 124.704 76.4333 125.931 76.3C125.971 76.3 126.004 76.3467 126.031 76.44C126.058 76.5333 126.071 76.6467 126.071 76.78C126.071 76.8867 126.051 77 126.011 77.12C125.971 77.2267 125.924 77.2733 125.871 77.26ZM130.685 84.24C129.911 84.24 129.251 84.06 128.705 83.7C128.158 83.34 127.738 82.8667 127.445 82.28C127.165 81.6933 127.025 81.0667 127.025 80.4C127.025 79.6133 127.211 78.8933 127.585 78.24C127.958 77.5733 128.465 77.0533 129.105 76.68C129.758 76.2933 130.471 76.1 131.245 76.1C131.991 76.1 132.565 76.3 132.965 76.7C133.365 77.1 133.565 77.66 133.565 78.38C133.565 78.5667 133.545 78.7 133.505 78.78C133.478 78.86 133.418 78.9 133.325 78.9H132.205L132.225 78.54C132.225 77.8733 132.078 77.3667 131.785 77.02C131.491 76.6733 131.091 76.5 130.585 76.5C129.878 76.5 129.325 76.78 128.925 77.34C128.538 77.9 128.345 78.6667 128.345 79.64C128.345 80.8 128.618 81.74 129.165 82.46C129.711 83.18 130.478 83.54 131.465 83.54C131.865 83.54 132.205 83.4867 132.485 83.38C132.778 83.2733 133.105 83.1067 133.465 82.88H133.485C133.525 82.88 133.558 82.9067 133.585 82.96C133.625 83 133.631 83.04 133.605 83.08C132.698 83.8533 131.725 84.24 130.685 84.24ZM127.965 78.66L132.505 78.58V78.9L127.985 78.92L127.965 78.66ZM150.356 84C150.316 84 150.296 83.96 150.296 83.88C150.296 83.8 150.316 83.76 150.356 83.76C150.716 83.76 150.983 83.7267 151.156 83.66C151.33 83.58 151.45 83.4467 151.516 83.26C151.583 83.06 151.616 82.7667 151.616 82.38V79.2C151.616 78.4133 151.476 77.8267 151.196 77.44C150.916 77.0533 150.483 76.86 149.896 76.86C149.43 76.86 148.95 77.02 148.456 77.34C147.976 77.6467 147.563 78.0667 147.216 78.6L147.136 78.36C147.696 77.5733 148.25 77 148.796 76.64C149.356 76.2667 149.943 76.08 150.556 76.08C151.263 76.08 151.803 76.28 152.176 76.68C152.55 77.08 152.736 77.6867 152.736 78.5V82.38C152.736 82.78 152.77 83.0733 152.836 83.26C152.903 83.4467 153.023 83.58 153.196 83.66C153.37 83.7267 153.636 83.76 153.996 83.76C154.036 83.76 154.056 83.8 154.056 83.88C154.056 83.96 154.036 84 153.996 84C153.69 84 153.443 83.9933 153.256 83.98L152.176 83.96L151.096 83.98C150.91 83.9933 150.663 84 150.356 84ZM145.196 84C145.156 84 145.136 83.96 145.136 83.88C145.136 83.8 145.156 83.76 145.196 83.76C145.556 83.76 145.823 83.7267 145.996 83.66C146.17 83.58 146.283 83.4467 146.336 83.26C146.403 83.0733 146.436 82.78 146.436 82.38V79.2C146.436 78.4133 146.296 77.8267 146.016 77.44C145.736 77.0533 145.31 76.86 144.736 76.86C144.256 76.86 143.776 77.02 143.296 77.34C142.816 77.6467 142.403 78.0667 142.056 78.6L141.976 78.36C142.536 77.5733 143.09 77 143.636 76.64C144.196 76.2667 144.776 76.08 145.376 76.08C146.083 76.08 146.623 76.28 146.996 76.68C147.383 77.08 147.576 77.6733 147.576 78.46V82.38C147.576 82.78 147.61 83.0733 147.676 83.26C147.743 83.4467 147.863 83.58 148.036 83.66C148.21 83.7267 148.476 83.76 148.836 83.76C148.876 83.76 148.896 83.8 148.896 83.88C148.896 83.96 148.876 84 148.836 84C148.53 84 148.283 83.9933 148.096 83.98L147.016 83.96L145.916 83.98C145.743 83.9933 145.503 84 145.196 84ZM140.056 84C140.016 84 139.996 83.96 139.996 83.88C139.996 83.8 140.016 83.76 140.056 83.76C140.416 83.76 140.683 83.7267 140.856 83.66C141.03 83.58 141.143 83.4467 141.196 83.26C141.263 83.0733 141.296 82.78 141.296 82.38V78.42C141.296 77.9667 141.243 77.64 141.136 77.44C141.03 77.24 140.85 77.14 140.596 77.14C140.383 77.14 140.023 77.24 139.516 77.44H139.476C139.423 77.44 139.383 77.4133 139.356 77.36C139.343 77.2933 139.363 77.2467 139.416 77.22L141.736 76.12C141.763 76.1067 141.803 76.1 141.856 76.1C141.976 76.1 142.103 76.2533 142.236 76.56C142.37 76.8667 142.436 77.26 142.436 77.74V82.38C142.436 82.78 142.463 83.0733 142.516 83.26C142.583 83.4467 142.703 83.58 142.876 83.66C143.05 83.7267 143.316 83.76 143.676 83.76C143.716 83.76 143.736 83.8 143.736 83.88C143.736 83.96 143.716 84 143.676 84C143.37 84 143.13 83.9933 142.956 83.98L141.876 83.96L140.776 83.98C140.603 83.9933 140.363 84 140.056 84ZM163.03 76.28C163.07 76.28 163.09 76.32 163.09 76.4C163.09 76.48 163.07 76.52 163.03 76.52C162.697 76.52 162.403 76.64 162.15 76.88C161.91 77.1067 161.69 77.5 161.49 78.06L159.05 84.56C158.557 85.8533 158.09 86.86 157.65 87.58C157.223 88.3133 156.777 88.8333 156.31 89.14C155.857 89.46 155.33 89.62 154.73 89.62C154.437 89.62 154.197 89.5533 154.01 89.42C153.81 89.2867 153.71 89.0933 153.71 88.84C153.71 88.6533 153.77 88.5067 153.89 88.4C154.01 88.2933 154.157 88.24 154.33 88.24C154.503 88.24 154.65 88.26 154.77 88.3C154.89 88.34 155.017 88.4067 155.15 88.5C155.177 88.5133 155.25 88.5533 155.37 88.62C155.503 88.6867 155.663 88.72 155.85 88.72C156.183 88.72 156.497 88.5667 156.79 88.26C157.083 87.9667 157.397 87.4667 157.73 86.76C158.077 86.0533 158.49 85.0667 158.97 83.8L158.95 84.36L155.79 77.94C155.483 77.3533 155.25 76.9733 155.09 76.8C154.93 76.6133 154.723 76.52 154.47 76.52C154.443 76.52 154.43 76.48 154.43 76.4C154.43 76.32 154.443 76.28 154.47 76.28L155.15 76.3C155.31 76.3133 155.53 76.32 155.81 76.32L157.09 76.3C157.277 76.2867 157.537 76.28 157.87 76.28C157.897 76.28 157.91 76.32 157.91 76.4C157.91 76.48 157.897 76.52 157.87 76.52C157.097 76.52 156.71 76.6733 156.71 76.98C156.71 77.06 156.743 77.1667 156.81 77.3L159.55 82.94L159.09 83.76L161.05 78.12C161.157 77.8 161.21 77.5467 161.21 77.36C161.21 77.0533 161.09 76.84 160.85 76.72C160.61 76.5867 160.217 76.52 159.67 76.52C159.643 76.52 159.63 76.48 159.63 76.4C159.63 76.32 159.643 76.28 159.67 76.28C160.03 76.28 160.303 76.2867 160.49 76.3L161.69 76.32L162.41 76.3C162.543 76.2867 162.75 76.28 163.03 76.28ZM170.689 73.84C170.689 74.36 170.816 74.8133 171.069 75.2C171.322 75.5867 171.629 75.9133 171.989 76.18C172.349 76.4333 172.856 76.76 173.509 77.16C174.202 77.5733 174.742 77.92 175.129 78.2C175.516 78.48 175.842 78.84 176.109 79.28C176.389 79.7067 176.529 80.22 176.529 80.82C176.529 81.46 176.369 82.04 176.049 82.56C175.729 83.08 175.256 83.4933 174.629 83.8C174.016 84.0933 173.276 84.24 172.409 84.24C171.382 84.24 170.442 84.0067 169.589 83.54C169.522 83.5 169.476 83.4533 169.449 83.4C169.436 83.3467 169.422 83.2667 169.409 83.16L169.149 80.44C169.136 80.3867 169.162 80.3533 169.229 80.34C169.309 80.3267 169.356 80.3467 169.369 80.4C169.569 81.3467 169.962 82.1733 170.549 82.88C171.136 83.5733 171.909 83.92 172.869 83.92C173.536 83.92 174.096 83.74 174.549 83.38C175.016 83.0067 175.249 82.42 175.249 81.62C175.249 81.02 175.116 80.5 174.849 80.06C174.582 79.62 174.256 79.26 173.869 78.98C173.496 78.6867 172.982 78.3467 172.329 77.96C171.689 77.5733 171.182 77.24 170.809 76.96C170.449 76.68 170.142 76.3267 169.889 75.9C169.636 75.4733 169.509 74.9733 169.509 74.4C169.509 73.7333 169.682 73.1667 170.029 72.7C170.389 72.22 170.849 71.8667 171.409 71.64C171.982 71.4 172.589 71.28 173.229 71.28C174.016 71.28 174.796 71.44 175.569 71.76C175.769 71.8267 175.869 71.94 175.869 72.1L176.009 74.38C176.009 74.4467 175.969 74.48 175.889 74.48C175.822 74.48 175.782 74.4533 175.769 74.4C175.676 73.7067 175.396 73.0667 174.929 72.48C174.462 71.88 173.789 71.58 172.909 71.58C172.162 71.58 171.602 71.8 171.229 72.24C170.869 72.6667 170.689 73.2 170.689 73.84ZM181.373 84.24C180.813 84.24 180.353 84.1133 179.993 83.86C179.633 83.6067 179.453 83.1867 179.453 82.6V77.9C179.453 77.5533 179.427 77.3067 179.373 77.16C179.333 77.0133 179.247 76.92 179.113 76.88C178.98 76.8267 178.753 76.8 178.433 76.8C178.38 76.8 178.353 76.76 178.353 76.68C178.353 76.5867 178.38 76.54 178.433 76.54C178.967 76.5267 179.4 76.3867 179.733 76.12C180.067 75.84 180.26 75.4733 180.313 75.02C180.313 74.98 180.367 74.96 180.473 74.96C180.567 74.96 180.613 74.98 180.613 75.02V81.92C180.613 83 181.14 83.54 182.193 83.54C182.807 83.54 183.34 83.3533 183.793 82.98L183.833 82.96C183.887 82.96 183.927 82.9933 183.953 83.06C183.98 83.1133 183.973 83.1533 183.933 83.18C183.44 83.5667 182.993 83.84 182.593 84C182.207 84.16 181.8 84.24 181.373 84.24ZM183.313 77.26C182.46 77.0467 181.447 76.94 180.273 76.94V76.5C181.113 76.5 182.153 76.4333 183.393 76.3C183.42 76.3 183.447 76.3533 183.473 76.46C183.513 76.5533 183.533 76.66 183.533 76.78C183.533 76.8867 183.507 77 183.453 77.12C183.413 77.2267 183.367 77.2733 183.313 77.26ZM192.991 76.28C193.031 76.28 193.051 76.32 193.051 76.4C193.051 76.48 193.031 76.52 192.991 76.52C192.658 76.52 192.364 76.64 192.111 76.88C191.871 77.1067 191.651 77.5 191.451 78.06L189.011 84.56C188.518 85.8533 188.051 86.86 187.611 87.58C187.184 88.3133 186.738 88.8333 186.271 89.14C185.818 89.46 185.291 89.62 184.691 89.62C184.398 89.62 184.158 89.5533 183.971 89.42C183.771 89.2867 183.671 89.0933 183.671 88.84C183.671 88.6533 183.731 88.5067 183.851 88.4C183.971 88.2933 184.118 88.24 184.291 88.24C184.464 88.24 184.611 88.26 184.731 88.3C184.851 88.34 184.978 88.4067 185.111 88.5C185.138 88.5133 185.211 88.5533 185.331 88.62C185.464 88.6867 185.624 88.72 185.811 88.72C186.144 88.72 186.458 88.5667 186.751 88.26C187.044 87.9667 187.358 87.4667 187.691 86.76C188.038 86.0533 188.451 85.0667 188.931 83.8L188.911 84.36L185.751 77.94C185.444 77.3533 185.211 76.9733 185.051 76.8C184.891 76.6133 184.684 76.52 184.431 76.52C184.404 76.52 184.391 76.48 184.391 76.4C184.391 76.32 184.404 76.28 184.431 76.28L185.111 76.3C185.271 76.3133 185.491 76.32 185.771 76.32L187.051 76.3C187.238 76.2867 187.498 76.28 187.831 76.28C187.858 76.28 187.871 76.32 187.871 76.4C187.871 76.48 187.858 76.52 187.831 76.52C187.058 76.52 186.671 76.6733 186.671 76.98C186.671 77.06 186.704 77.1667 186.771 77.3L189.511 82.94L189.051 83.76L191.011 78.12C191.118 77.8 191.171 77.5467 191.171 77.36C191.171 77.0533 191.051 76.84 190.811 76.72C190.571 76.5867 190.178 76.52 189.631 76.52C189.604 76.52 189.591 76.48 189.591 76.4C189.591 76.32 189.604 76.28 189.631 76.28C189.991 76.28 190.264 76.2867 190.451 76.3L191.651 76.32L192.371 76.3C192.504 76.2867 192.711 76.28 192.991 76.28ZM193.863 84C193.823 84 193.803 83.96 193.803 83.88C193.803 83.8 193.823 83.76 193.863 83.76C194.223 83.76 194.489 83.7267 194.663 83.66C194.836 83.58 194.956 83.4467 195.023 83.26C195.089 83.06 195.123 82.7667 195.123 82.38V72.04C195.123 71.56 195.076 71.2133 194.983 71C194.889 70.7867 194.723 70.68 194.483 70.68C194.283 70.68 193.976 70.7733 193.563 70.96H193.523C193.483 70.96 193.449 70.9267 193.423 70.86C193.409 70.7933 193.423 70.7533 193.463 70.74L196.023 69.52C196.049 69.5067 196.083 69.5 196.123 69.5C196.163 69.5 196.203 69.52 196.243 69.56C196.283 69.5867 196.303 69.62 196.303 69.66V82.38C196.303 82.7667 196.329 83.0533 196.383 83.24C196.449 83.4267 196.569 83.56 196.743 83.64C196.916 83.72 197.183 83.76 197.543 83.76C197.583 83.76 197.603 83.8 197.603 83.88C197.603 83.96 197.583 84 197.543 84C197.249 84 197.009 83.9933 196.823 83.98L195.702 83.96L194.623 83.98C194.436 83.9933 194.183 84 193.863 84ZM202.599 84.24C201.825 84.24 201.165 84.06 200.619 83.7C200.072 83.34 199.652 82.8667 199.359 82.28C199.079 81.6933 198.939 81.0667 198.939 80.4C198.939 79.6133 199.125 78.8933 199.499 78.24C199.872 77.5733 200.379 77.0533 201.019 76.68C201.672 76.2933 202.385 76.1 203.159 76.1C203.905 76.1 204.479 76.3 204.879 76.7C205.279 77.1 205.479 77.66 205.479 78.38C205.479 78.5667 205.459 78.7 205.419 78.78C205.392 78.86 205.332 78.9 205.239 78.9H204.119L204.139 78.54C204.139 77.8733 203.992 77.3667 203.699 77.02C203.405 76.6733 203.005 76.5 202.499 76.5C201.792 76.5 201.239 76.78 200.839 77.34C200.452 77.9 200.259 78.6667 200.259 79.64C200.259 80.8 200.532 81.74 201.079 82.46C201.625 83.18 202.392 83.54 203.379 83.54C203.779 83.54 204.119 83.4867 204.399 83.38C204.692 83.2733 205.019 83.1067 205.379 82.88H205.399C205.439 82.88 205.472 82.9067 205.499 82.96C205.539 83 205.545 83.04 205.519 83.08C204.612 83.8533 203.639 84.24 202.599 84.24ZM199.879 78.66L204.419 78.58V78.9L199.899 78.92L199.879 78.66Z" fill="white"/>
</svg>
