<svg width="286" height="72" viewBox="0 0 286 72" fill="none" xmlns="http://www.w3.org/2000/svg">
<path d="M52.136 71.904C51.7093 71.904 51.432 71.8187 51.304 71.648C51.176 71.52 51.112 71.3707 51.112 71.2C51.88 71.072 52.6267 70.496 53.352 69.472C54.0773 68.4907 54.44 67.3387 54.44 66.016C54.44 63.9253 53.7573 61.8987 52.392 59.936C51.0267 58.016 49.1067 56.2453 46.632 54.624C44.1573 53.0027 41.256 51.616 37.928 50.464C34.6427 49.2693 31.0373 48.3947 27.112 47.84C25.6613 49.888 24.0187 51.7653 22.184 53.472C20.392 55.2213 18.3867 56.608 16.168 57.632C13.992 58.6987 11.624 59.232 9.064 59.232C6.376 59.232 4.328 58.6133 2.92 57.376C1.512 56.1387 0.808 54.7093 0.808 53.088C0.808 51.5947 1.40533 50.1013 2.6 48.608C3.83733 47.072 5.69333 45.8133 8.168 44.832C10.6853 43.808 13.864 43.296 17.704 43.296C20.648 43.296 23.6347 43.552 26.664 44.064C27.7307 42.1867 28.6907 40.3093 29.544 38.432C30.3973 36.5547 31.144 34.784 31.784 33.12C27.56 32.9493 24.232 32.3093 21.8 31.2C19.368 30.048 17.64 28.6187 16.616 26.912C15.592 25.2053 15.08 23.456 15.08 21.664C15.08 19.4027 15.7627 17.2693 17.128 15.264C18.4933 13.216 20.3493 11.552 22.696 10.272C25.0427 8.992 27.6667 8.352 30.568 8.352C30.9093 8.352 31.1227 8.48 31.208 8.736C31.2933 8.992 31.336 9.20533 31.336 9.376C29.7147 9.376 28.136 9.73867 26.6 10.464C25.1067 11.1893 23.7627 12.1707 22.568 13.408C21.3733 14.6027 20.4133 15.9467 19.688 17.44C19.0053 18.9333 18.664 20.4693 18.664 22.048C18.664 23.584 19.0693 25.0987 19.88 26.592C20.6907 28.0427 22.0773 29.2587 24.04 30.24C26.0027 31.2213 28.7547 31.7547 32.296 31.84C32.68 30.8587 33 29.9627 33.256 29.152C33.5547 28.2987 33.8107 27.5733 34.024 26.976C35.048 23.904 36.136 20.8533 37.288 17.824C38.4827 14.7947 39.8267 12.0427 41.32 9.568C42.856 7.09333 44.6693 5.10933 46.76 3.616C48.8507 2.12267 51.3467 1.376 54.248 1.376C56.1253 1.376 57.576 1.90933 58.6 2.976C59.6667 4.04266 60.2 5.51466 60.2 7.392C60.2 9.22666 59.7733 11.2533 58.92 13.472C58.0667 15.648 56.872 17.824 55.336 20C53.8 22.176 51.9867 24.2027 49.896 26.08C47.8053 27.9573 45.5227 29.5147 43.048 30.752C40.5733 31.9893 37.9707 32.7573 35.24 33.056C34.6 34.4213 33.7893 36.1493 32.808 38.24C31.8267 40.288 30.6533 42.4 29.288 44.576C33 45.4293 36.4987 46.5813 39.784 48.032C43.112 49.4827 46.0347 51.1253 48.552 52.96C51.112 54.8373 53.1173 56.8213 54.568 58.912C56.0187 61.0453 56.744 63.1573 56.744 65.248C56.744 67.1253 56.2747 68.704 55.336 69.984C54.3973 71.264 53.3307 71.904 52.136 71.904ZM54.248 4.64C52.4133 4.64 50.6853 5.45067 49.064 7.072C47.4427 8.65067 45.8853 10.7627 44.392 13.408C42.9413 16.0107 41.512 18.912 40.104 22.112C38.696 25.312 37.288 28.4907 35.88 31.648C38.3973 31.3067 40.744 30.5387 42.92 29.344C45.096 28.1493 47.08 26.6987 48.872 24.992C50.664 23.2427 52.2 21.3867 53.48 19.424C54.76 17.4613 55.7413 15.5413 56.424 13.664C57.1067 11.744 57.448 10.0373 57.448 8.544C57.448 7.34933 57.192 6.41066 56.68 5.728C56.168 5.00267 55.3573 4.64 54.248 4.64ZM2.408 53.984C2.408 55.0507 2.984 55.968 4.136 56.736C5.288 57.5467 6.93067 57.952 9.064 57.952C12.2213 57.952 15.08 56.928 17.64 54.88C20.2 52.8747 22.4827 50.4213 24.488 47.52C22.2267 47.3067 19.9653 47.2 17.704 47.2C14.2053 47.2 11.3253 47.5627 9.064 48.288C6.80267 48.9707 5.11733 49.8453 4.008 50.912C2.94133 51.936 2.408 52.96 2.408 53.984ZM64.4765 52.192C63.4952 52.192 62.6205 51.9147 61.8525 51.36C61.1272 50.8053 60.7645 49.6747 60.7645 47.968C60.7645 47.2427 60.8072 46.56 60.8925 45.92C61.0205 45.28 61.1698 44.5973 61.3405 43.872C60.9565 44.512 60.4232 45.3013 59.7405 46.24C59.0578 47.1787 58.2898 48.096 57.4365 48.992C56.6258 49.888 55.7725 50.6347 54.8765 51.232C54.0232 51.8293 53.2125 52.128 52.4445 52.128C51.3352 52.128 50.4392 51.6373 49.7565 50.656C49.0738 49.632 48.7325 48.3093 48.7325 46.688C48.7325 44.9387 49.1378 43.0613 49.9485 41.056C50.7592 39.0507 51.8685 37.1307 53.2765 35.296C54.6845 33.4613 56.3058 31.968 58.1405 30.816C59.9752 29.664 61.8952 29.088 63.9005 29.088C64.8818 29.088 65.8205 29.2587 66.7165 29.6C67.6125 29.8987 68.4018 30.4107 69.0845 31.136C69.3832 31.4347 69.5325 31.776 69.5325 32.16C69.5325 32.416 69.4258 32.6293 69.2125 32.8C68.9992 32.9707 68.7218 33.0133 68.3805 32.928C67.9112 31.4347 66.9085 30.688 65.3725 30.688C64.6472 30.688 63.8152 30.9227 62.8765 31.392C61.7245 31.9893 60.4872 32.9493 59.1645 34.272C57.8845 35.552 56.6685 37.024 55.5165 38.688C54.4072 40.3093 53.4898 41.952 52.7645 43.616C52.0392 45.28 51.6765 46.7947 51.6765 48.16C51.6765 49.568 52.2098 50.272 53.2765 50.272C54.2152 50.272 55.1752 49.824 56.1565 48.928C57.1805 48.032 58.1405 46.9227 59.0365 45.6C59.9752 44.2347 60.8285 42.8907 61.5965 41.568C62.3645 40.2453 62.9618 39.1787 63.3885 38.368C64.0285 37.216 64.6258 36.256 65.1805 35.488C65.7352 34.72 66.5245 34.336 67.5485 34.336C68.0178 34.336 68.4872 34.4 68.9565 34.528C69.4258 34.656 69.9165 34.6773 70.4285 34.592C69.1485 35.872 68.0178 37.3867 67.0365 39.136C66.0978 40.8853 65.3725 42.6133 64.8605 44.32C64.3485 45.984 64.0925 47.392 64.0925 48.544C64.0925 49.824 64.5192 50.464 65.3725 50.464C66.0552 50.464 66.7805 50.08 67.5485 49.312C68.3592 48.544 69.1272 47.584 69.8525 46.432C70.6205 45.2373 71.3245 44.0427 71.9645 42.848C72.6045 41.6107 73.1165 40.544 73.5005 39.648C73.7138 39.648 73.8845 39.6693 74.0125 39.712C74.1832 39.7547 74.2685 39.9253 74.2685 40.224C74.2258 40.3947 74.1405 40.5867 74.0125 40.8C73.9272 40.9707 73.7778 41.2907 73.5645 41.76C73.2232 42.4427 72.7538 43.36 72.1565 44.512C71.5592 45.664 70.8552 46.8373 70.0445 48.032C69.2338 49.184 68.3592 50.1653 67.4205 50.976C66.4818 51.7867 65.5005 52.192 64.4765 52.192ZM79.03 52.256C76.6833 52.256 74.934 51.6373 73.782 50.4C72.6727 49.1627 72.118 47.4987 72.118 45.408C72.118 44.4267 72.31 43.296 72.694 42.016C73.078 40.736 73.59 39.4347 74.23 38.112C74.87 36.7893 75.574 35.616 76.342 34.592C77.5793 32.928 78.9447 31.648 80.438 30.752C81.9313 29.8133 83.446 29.344 84.982 29.344C86.6033 29.344 87.7553 29.7067 88.438 30.432C89.1633 31.1147 89.526 31.9253 89.526 32.864C89.526 33.76 89.3127 34.5707 88.886 35.296C88.4593 35.9787 87.9687 36.5333 87.414 36.96C86.902 37.3867 86.454 37.6 86.07 37.6C85.7287 37.6 85.43 37.472 85.174 37.216C85.5153 36.7893 85.878 36.2773 86.262 35.68C86.646 35.0827 86.9233 34.5067 87.094 33.952C87.2647 33.44 87.35 32.928 87.35 32.416C87.35 31.3067 86.838 30.752 85.814 30.752C84.5767 30.752 83.3607 31.264 82.166 32.288C81.014 33.312 79.9473 34.6347 78.966 36.256C78.0273 37.8347 77.2593 39.52 76.662 41.312C76.1073 43.0613 75.83 44.6827 75.83 46.176C75.83 47.5413 76.1073 48.672 76.662 49.568C77.2593 50.464 78.2193 50.912 79.542 50.912C81.2913 50.912 82.8273 50.3573 84.15 49.248C85.4727 48.096 86.646 46.6667 87.67 44.96C88.694 43.2107 89.59 41.44 90.358 39.648C90.5287 39.648 90.6993 39.6907 90.87 39.776C91.0407 39.8187 91.126 39.968 91.126 40.224C90.2727 42.3573 89.27 44.3413 88.118 46.176C86.966 48.0107 85.6433 49.4827 84.15 50.592C82.6993 51.7013 80.9927 52.256 79.03 52.256ZM94.9465 52.256C93.3678 52.256 91.9385 51.744 90.6585 50.72C89.4212 49.696 88.8025 48.1387 88.8025 46.048C88.8025 44.2987 89.1865 42.4427 89.9545 40.48C90.7652 38.5173 91.8105 36.6827 93.0905 34.976C94.4132 33.2267 95.8638 31.8187 97.4425 30.752C99.0638 29.6427 100.685 29.088 102.307 29.088C103.117 29.088 103.907 29.3227 104.675 29.792C105.443 30.2613 105.827 31.072 105.827 32.224C105.827 33.2907 105.421 34.464 104.611 35.744C103.8 37.024 102.648 38.2187 101.155 39.328C100.515 39.7973 99.7038 40.2453 98.7225 40.672C97.7412 41.0987 96.7598 41.4613 95.7785 41.76C94.7972 42.016 93.9865 42.144 93.3465 42.144C93.1332 42.656 92.9198 43.3387 92.7065 44.192C92.5358 45.0453 92.4505 45.92 92.4505 46.816C92.4505 47.8827 92.6638 48.8427 93.0905 49.696C93.5172 50.5493 94.3065 50.976 95.4585 50.976C96.8665 50.976 98.1678 50.5707 99.3625 49.76C100.6 48.9493 101.688 47.9253 102.627 46.688C103.608 45.4507 104.44 44.192 105.123 42.912C105.805 41.632 106.339 40.544 106.723 39.648C107.235 39.648 107.491 39.84 107.491 40.224C106.936 41.4187 106.296 42.72 105.571 44.128C104.888 45.536 104.056 46.8587 103.075 48.096C102.136 49.2907 100.984 50.2933 99.6185 51.104C98.2958 51.872 96.7385 52.256 94.9465 52.256ZM93.7945 40.992C94.3918 40.992 95.3945 40.7787 96.8025 40.352C98.2105 39.8827 99.4905 39.1573 100.643 38.176C101.752 37.1947 102.605 36.128 103.203 34.976C103.8 33.7813 104.099 32.7787 104.099 31.968C104.099 31.0293 103.757 30.56 103.075 30.56C102.563 30.56 101.859 30.9013 100.963 31.584C100.067 32.2667 98.9572 33.4187 97.6345 35.04C96.8238 36.064 96.0558 37.1733 95.3305 38.368C94.6052 39.5627 94.0932 40.4373 93.7945 40.992ZM133.587 63.072C131.112 63.072 128.659 62.7733 126.227 62.176C123.838 61.6213 121.662 60.6827 119.699 59.36C117.779 58.0373 116.243 56.2453 115.091 53.984C113.939 51.7653 113.363 48.992 113.363 45.664C113.363 43.2747 113.768 41.0347 114.579 38.944C115.39 36.8533 116.456 35.168 117.779 33.888C119.102 32.5653 120.51 31.904 122.003 31.904C122.515 31.904 122.771 32.032 122.771 32.288C122.771 32.544 122.494 32.7573 121.939 32.928C120.872 33.184 119.827 33.8453 118.803 34.912C117.822 35.936 117.011 37.3013 116.371 39.008C115.731 40.7147 115.411 42.7413 115.411 45.088C115.411 47.904 115.923 50.208 116.947 52C118.014 53.792 119.379 55.2 121.043 56.224C122.707 57.248 124.456 57.952 126.291 58.336C128.168 58.7627 129.939 58.976 131.603 58.976C136.296 58.976 140.584 58.2293 144.467 56.736C148.392 55.2853 151.912 53.2587 155.027 50.656C158.184 48.0533 160.915 45.0667 163.219 41.696C165.566 38.2827 167.507 34.6347 169.043 30.752C169.086 30.624 169.128 30.496 169.171 30.368C168.488 30.4107 167.912 30.4747 167.443 30.56C166.974 30.6453 166.526 30.7733 166.099 30.944C165.16 31.2853 164.456 31.456 163.987 31.456C163.731 31.456 163.603 31.2853 163.603 30.944C163.603 30.3467 163.902 29.728 164.499 29.088C165.139 28.4053 165.907 28.0427 166.803 28C167.144 28 167.614 28 168.211 28C168.851 27.9573 169.512 27.936 170.195 27.936C171.006 25.888 171.88 23.776 172.819 21.6C173.758 19.424 174.675 17.3547 175.571 15.392C176.467 13.4293 177.256 11.7227 177.939 10.272C178.622 8.82133 179.112 7.79733 179.411 7.2C177.064 7.456 174.632 7.69067 172.115 7.904C169.598 8.07466 167.123 8.37333 164.691 8.8C162.259 9.184 159.955 9.824 157.779 10.72C153.768 12.384 150.846 14.5813 149.011 17.312C147.219 20 146.323 23.008 146.323 26.336C146.323 28.4267 146.899 30.1547 148.051 31.52C149.203 32.8853 150.718 33.568 152.595 33.568C154.302 33.568 155.795 33.056 157.075 32.032C158.355 30.9653 159.358 29.6427 160.083 28.064C160.851 26.4427 161.235 24.8427 161.235 23.264C161.235 22.752 161.171 22.304 161.043 21.92C160.958 21.4933 160.872 21.1947 160.787 21.024C160.787 20.7253 160.915 20.576 161.171 20.576C161.726 20.576 162.088 20.9813 162.259 21.792C162.472 22.56 162.579 23.328 162.579 24.096C162.579 25.8027 162.11 27.488 161.171 29.152C160.275 30.816 159.016 32.2027 157.395 33.312C155.816 34.3787 154.024 34.912 152.019 34.912C150.227 34.912 148.584 34.464 147.091 33.568C145.64 32.6293 144.467 31.3707 143.571 29.792C142.675 28.2133 142.227 26.464 142.227 24.544C142.227 21.8133 142.846 19.4027 144.083 17.312C145.32 15.1787 147.006 13.3653 149.139 11.872C151.315 10.3787 153.747 9.248 156.435 8.48C159.038 7.712 161.726 7.17867 164.499 6.88C167.315 6.58133 170.067 6.368 172.755 6.24C175.486 6.06933 177.982 5.87733 180.243 5.664C180.67 4.896 181.203 4.10666 181.843 3.296C182.526 2.48533 183.272 1.80266 184.083 1.248C184.894 0.650664 185.726 0.351997 186.579 0.351997C187.219 0.351997 187.774 0.522664 188.243 0.863998C188.712 1.16266 188.947 1.65333 188.947 2.336C188.947 3.36 188.542 4.21333 187.731 4.896C186.963 5.536 185.982 6.02666 184.787 6.368C183.592 6.70933 182.419 6.96533 181.267 7.136C180.798 8.032 180.243 9.29067 179.603 10.912C178.963 12.5333 178.259 14.3467 177.491 16.352C176.766 18.3147 176.019 20.32 175.251 22.368C174.526 24.3733 173.843 26.2507 173.203 28C174.654 28.0853 176.339 28.192 178.259 28.32C180.222 28.4053 182.227 28.512 184.275 28.64C186.323 28.7253 188.264 28.8107 190.099 28.896C191.976 28.9813 193.512 29.024 194.707 29.024C195.176 27.8293 195.667 26.592 196.179 25.312C198.824 18.8693 201.256 13.792 203.475 10.08C205.694 6.368 207.464 4.29866 208.787 3.872C210.494 3.31733 211.667 3.04 212.307 3.04C212.563 3.04 212.691 3.08266 212.691 3.168C212.691 3.296 212.392 3.50933 211.795 3.808C211.496 3.97867 210.878 4.72533 209.939 6.048C209.043 7.37066 207.955 9.184 206.675 11.488C205.395 13.7493 204.051 16.3733 202.643 19.36C201.235 22.3467 199.891 25.5893 198.611 29.088C199.336 29.088 200.062 29.0667 200.787 29.024C201.555 28.9813 202.131 28.9387 202.515 28.896C202.984 28.8107 203.368 28.704 203.667 28.576C204.008 28.448 204.264 28.384 204.435 28.384C204.648 28.384 204.755 28.4907 204.755 28.704C204.755 28.832 204.584 29.0453 204.243 29.344C203.518 29.856 202.643 30.304 201.619 30.688C200.595 31.072 199.315 31.3067 197.779 31.392C196.798 34.208 195.88 37.1093 195.027 40.096C194.174 43.04 193.747 45.7707 193.747 48.288C193.747 49.2267 193.918 50.1227 194.259 50.976C194.6 51.8293 195.24 52.256 196.179 52.256C197.288 52.256 198.504 51.6587 199.827 50.464C201.15 49.2267 202.451 47.648 203.731 45.728C205.011 43.808 206.078 41.7813 206.931 39.648C207.443 39.648 207.699 39.84 207.699 40.224C206.675 42.5707 205.459 44.8533 204.051 47.072C202.686 49.2907 201.171 51.104 199.507 52.512C197.886 53.9627 196.179 54.688 194.387 54.688C192.979 54.688 191.827 54.176 190.931 53.152C190.078 52.128 189.651 50.6133 189.651 48.608C189.651 46.6453 190.035 44.1493 190.803 41.12C191.614 38.0907 192.638 34.848 193.875 31.392C192.595 31.3493 191.016 31.2853 189.139 31.2C187.262 31.1147 185.278 31.0293 183.187 30.944C181.096 30.816 179.091 30.7093 177.171 30.624C175.251 30.5387 173.651 30.4747 172.371 30.432C172.2 30.944 172.03 31.4347 171.859 31.904C171.688 32.3733 171.539 32.8 171.411 33.184C170.131 36.9387 168.339 40.5867 166.035 44.128C163.774 47.6693 161.043 50.8693 157.843 53.728C154.686 56.5867 151.059 58.848 146.963 60.512C142.91 62.2187 138.451 63.072 133.587 63.072ZM182.483 5.536C182.91 5.45066 183.272 5.36533 183.571 5.28C183.912 5.19466 184.232 5.10933 184.531 5.024C185.299 4.768 185.832 4.46933 186.131 4.128C186.472 3.78666 186.643 3.488 186.643 3.232C186.643 2.72 186.344 2.464 185.747 2.464C185.448 2.464 185.086 2.592 184.659 2.848C184.232 3.104 183.806 3.53067 183.379 4.128C183.208 4.384 183.038 4.64 182.867 4.896C182.739 5.10933 182.611 5.32267 182.483 5.536ZM210.741 52C208.992 52 207.69 51.3813 206.837 50.144C206.026 48.864 205.621 47.328 205.621 45.536C205.621 43.872 205.941 42.144 206.581 40.352C207.264 38.3893 208.202 36.5973 209.397 34.976C210.634 33.3547 211.978 32.0533 213.429 31.072C214.922 30.048 216.394 29.536 217.845 29.536C219.594 29.536 220.874 30.1333 221.685 31.328C222.538 32.5227 222.965 34.0373 222.965 35.872C222.965 37.152 222.752 38.496 222.325 39.904C221.898 41.312 221.322 42.6987 220.597 44.064C221.152 44.6187 221.941 44.896 222.965 44.896C224.16 44.896 225.184 44.512 226.037 43.744C226.89 42.976 227.722 41.6107 228.533 39.648C229.045 39.648 229.301 39.84 229.301 40.224C228.49 42.1867 227.552 43.6373 226.485 44.576C225.461 45.472 224.138 45.8987 222.517 45.856C221.536 45.856 220.725 45.5787 220.085 45.024C218.89 46.9867 217.461 48.6507 215.797 50.016C214.176 51.3387 212.49 52 210.741 52ZM211.637 50.592C212.618 50.592 213.6 50.1867 214.581 49.376C215.562 48.5227 216.458 47.5627 217.269 46.496C218.08 45.4293 218.656 44.512 218.997 43.744C218.314 42.5067 217.909 41.5893 217.781 40.992C217.696 40.352 217.653 39.8827 217.653 39.584C217.653 38.7733 217.866 38.1547 218.293 37.728C218.72 37.3013 219.146 37.088 219.573 37.088C220.17 37.088 220.682 37.344 221.109 37.856C221.194 37.3867 221.258 36.96 221.301 36.576C221.344 36.1493 221.365 35.744 221.365 35.36C221.365 34.2507 221.152 33.3547 220.725 32.672C220.341 31.9467 219.722 31.584 218.869 31.584C217.973 31.584 217.034 31.968 216.053 32.736C215.072 33.504 214.133 34.528 213.237 35.808C212.384 37.088 211.637 38.5173 210.997 40.096C210.442 41.4187 210.016 42.6773 209.717 43.872C209.418 45.024 209.269 46.0907 209.269 47.072C209.269 48.1387 209.461 48.992 209.845 49.632C210.229 50.272 210.826 50.592 211.637 50.592ZM230.382 52C229.913 52 229.337 51.8933 228.654 51.68C228.014 51.4667 227.438 51.0827 226.926 50.528C226.457 49.9307 226.222 49.056 226.222 47.904C226.222 46.7947 226.585 45.5147 227.31 44.064C228.035 42.6133 228.675 41.3333 229.23 40.224C228.761 40.224 228.526 40.032 228.526 39.648C228.569 39.52 228.761 39.1147 229.102 38.432C229.443 37.7493 229.849 36.9387 230.318 36C230.787 35.0613 231.235 34.1653 231.662 33.312C232.131 32.416 232.494 31.7333 232.75 31.264C233.262 30.3253 234.073 29.856 235.182 29.856H239.15C238.425 30.4107 237.763 31.0293 237.166 31.712C236.611 32.352 235.907 33.5467 235.054 35.296C235.054 35.296 234.905 35.5947 234.606 36.192C234.307 36.7893 233.923 37.5573 233.454 38.496C233.027 39.392 232.579 40.3093 232.11 41.248C231.683 42.1867 231.321 42.976 231.022 43.616C230.467 44.8107 230.105 45.7707 229.934 46.496C229.763 47.1787 229.678 47.8187 229.678 48.416C229.678 49.824 230.147 50.528 231.086 50.528C232.11 50.528 233.347 49.696 234.798 48.032C235.993 46.624 237.166 44.9387 238.318 42.976C239.47 41.0133 240.558 38.9867 241.582 36.896C242.649 34.8053 243.587 32.928 244.398 31.264C244.867 30.3253 245.699 29.856 246.894 29.856H250.414C249.475 30.624 248.515 31.776 247.534 33.312C246.595 34.848 245.55 36.8107 244.398 39.2C244.099 39.84 243.715 40.6507 243.246 41.632C242.777 42.6133 242.35 43.6587 241.966 44.768C241.625 45.8773 241.454 46.9867 241.454 48.096C241.454 49.5893 241.987 50.336 243.054 50.336C244.505 50.336 245.913 49.3333 247.278 47.328C248.643 45.3227 249.987 42.7627 251.31 39.648C251.651 39.648 251.843 39.6693 251.886 39.712C251.971 39.7547 252.035 39.9253 252.078 40.224C251.609 41.376 251.033 42.6347 250.35 44C249.71 45.3227 248.963 46.6027 248.11 47.84C247.299 49.0773 246.382 50.08 245.358 50.848C244.377 51.616 243.289 52 242.094 52C241.027 52 240.153 51.616 239.47 50.848C238.787 50.0373 238.446 48.9067 238.446 47.456C238.446 46.304 238.659 45.0667 239.086 43.744C238.361 45.024 237.529 46.304 236.59 47.584C235.651 48.864 234.649 49.9307 233.582 50.784C232.515 51.5947 231.449 52 230.382 52ZM252.683 52.256C250.933 52.256 249.504 51.7227 248.395 50.656C247.328 49.5467 246.794 48.3947 246.794 47.2C246.794 46.2187 247.05 45.3227 247.562 44.512C248.032 43.6587 248.672 43.232 249.483 43.232L249.547 43.104C250.485 41.3973 251.381 39.6693 252.235 37.92C253.131 36.128 254.112 34.2293 255.179 32.224C256.075 30.56 257.035 29.1947 258.059 28.128C259.125 27.0613 260.363 26.528 261.771 26.528C262.112 26.528 262.581 26.6133 263.179 26.784C263.776 26.912 264.075 27.2107 264.075 27.68C264.075 28.0213 263.883 28.192 263.499 28.192C263.2 28.192 262.859 28.1067 262.475 27.936C262.133 27.7653 261.856 27.68 261.643 27.68C260.832 27.68 260.149 28.1493 259.595 29.088C259.04 30.0267 258.763 31.0293 258.763 32.096C258.763 33.248 258.955 34.2933 259.339 35.232C259.723 36.128 260.171 37.0027 260.683 37.856C261.195 38.7093 261.643 39.584 262.027 40.48C262.411 41.3333 262.603 42.272 262.603 43.296C262.603 45.344 262.197 47.008 261.387 48.288C260.619 49.5253 259.595 50.464 258.315 51.104H258.379C260.64 51.104 262.496 50.0587 263.947 47.968C265.44 45.8347 266.912 43.0613 268.363 39.648C268.875 39.648 269.131 39.84 269.131 40.224C268.32 42.144 267.424 44.0213 266.443 45.856C265.461 47.6907 264.309 49.2053 262.987 50.4C261.664 51.5947 260.043 52.192 258.123 52.192C257.312 52.192 256.565 52.1067 255.883 51.936C254.901 52.1493 253.835 52.256 252.683 52.256ZM251.723 45.472C251.723 46.496 251.957 47.4773 252.427 48.416C252.896 49.3547 253.749 50.0587 254.987 50.528C256.096 49.888 256.949 48.9067 257.547 47.584C258.187 46.2187 258.507 44.8107 258.507 43.36C258.507 42.1653 258.379 40.9493 258.123 39.712C257.867 38.4747 257.589 37.2587 257.291 36.064C257.035 34.8693 256.907 33.8027 256.907 32.864C256.907 32.5653 256.907 32.3093 256.907 32.096C256.949 31.84 256.992 31.6053 257.035 31.392C256.267 32.544 255.477 33.888 254.667 35.424C253.899 36.96 253.152 38.432 252.427 39.84C251.701 41.248 251.04 42.4 250.443 43.296C251.296 43.424 251.723 44.1493 251.723 45.472ZM249.611 48.672C249.611 49.3547 249.845 49.952 250.315 50.464C250.784 50.976 251.488 51.232 252.427 51.232C252.853 51.232 253.259 51.1893 253.643 51.104C252.747 50.5493 252.021 49.8453 251.467 48.992C250.955 48.1387 250.699 47.1573 250.699 46.048C250.315 46.4747 250.037 46.9227 249.867 47.392C249.696 47.8187 249.611 48.2453 249.611 48.672ZM273.009 52.256C271.43 52.256 270.001 51.744 268.721 50.72C267.484 49.696 266.865 48.1387 266.865 46.048C266.865 44.2987 267.249 42.4427 268.017 40.48C268.828 38.5173 269.873 36.6827 271.153 34.976C272.476 33.2267 273.926 31.8187 275.505 30.752C277.126 29.6427 278.748 29.088 280.369 29.088C281.18 29.088 281.969 29.3227 282.737 29.792C283.505 30.2613 283.889 31.072 283.889 32.224C283.889 33.2907 283.484 34.464 282.673 35.744C281.862 37.024 280.71 38.2187 279.217 39.328C278.577 39.7973 277.766 40.2453 276.785 40.672C275.804 41.0987 274.822 41.4613 273.841 41.76C272.86 42.016 272.049 42.144 271.409 42.144C271.196 42.656 270.982 43.3387 270.769 44.192C270.598 45.0453 270.513 45.92 270.513 46.816C270.513 47.8827 270.726 48.8427 271.153 49.696C271.58 50.5493 272.369 50.976 273.521 50.976C274.929 50.976 276.23 50.5707 277.425 49.76C278.662 48.9493 279.75 47.9253 280.689 46.688C281.67 45.4507 282.502 44.192 283.185 42.912C283.868 41.632 284.401 40.544 284.785 39.648C285.297 39.648 285.553 39.84 285.553 40.224C284.998 41.4187 284.358 42.72 283.633 44.128C282.95 45.536 282.118 46.8587 281.137 48.096C280.198 49.2907 279.046 50.2933 277.681 51.104C276.358 51.872 274.801 52.256 273.009 52.256ZM271.857 40.992C272.454 40.992 273.457 40.7787 274.865 40.352C276.273 39.8827 277.553 39.1573 278.705 38.176C279.814 37.1947 280.668 36.128 281.265 34.976C281.862 33.7813 282.161 32.7787 282.161 31.968C282.161 31.0293 281.82 30.56 281.137 30.56C280.625 30.56 279.921 30.9013 279.025 31.584C278.129 32.2667 277.02 33.4187 275.697 35.04C274.886 36.064 274.118 37.1733 273.393 38.368C272.668 39.5627 272.156 40.4373 271.857 40.992Z" fill="white"/>
</svg>
