<?xml version="1.0" encoding="UTF-8"?>
<!DOCTYPE svg PUBLIC "-//W3C//DTD SVG 1.1//EN" "http://www.w3.org/Graphics/SVG/1.1/DTD/svg11.dtd">
<svg xmlns="http://www.w3.org/2000/svg" version="1.1" width="500px" height="500px" style="shape-rendering:geometricPrecision; text-rendering:geometricPrecision; image-rendering:optimizeQuality; fill-rule:evenodd; clip-rule:evenodd" xmlns:xlink="http://www.w3.org/1999/xlink">
<g><path style="opacity:0.004" fill="#000000" d="M -0.5,-0.5 C -0.166667,-0.5 0.166667,-0.5 0.5,-0.5C 0.5,-0.166667 0.5,0.166667 0.5,0.5C 0.166667,0.166667 -0.166667,-0.166667 -0.5,-0.5 Z"/></g>
<g><path style="opacity:0.006" fill="#000000" d="M 497.5,-0.5 C 498.167,-0.5 498.833,-0.5 499.5,-0.5C 499.5,-0.166667 499.5,0.166667 499.5,0.5C 498.508,0.67158 497.842,0.338246 497.5,-0.5 Z"/></g>
<g><path style="opacity:0.004" fill="#000000" d="M 0.5,0.5 C 1.83333,1.16667 1.83333,1.16667 0.5,0.5 Z"/></g>
<g><path style="opacity:0.004" fill="#000000" d="M 54.5,1.5 C 54.8966,0.474981 55.5632,0.308314 56.5,1C 55.9056,1.46434 55.2389,1.63101 54.5,1.5 Z"/></g>
<g><path style="opacity:0.004" fill="#000000" d="M 466.5,1.5 C 467.251,0.426544 468.251,0.259877 469.5,1C 468.552,1.48278 467.552,1.64945 466.5,1.5 Z"/></g>
<g><path style="opacity:0.004" fill="#000000" d="M 494.5,0.5 C 495.833,1.16667 495.833,1.16667 494.5,0.5 Z"/></g>
<g><path style="opacity:0.006" fill="#000000" d="M 105.5,119.5 C 102.833,119.5 100.167,119.5 97.5,119.5C 99.8927,118.79 102.393,118.123 105,117.5C 105.464,118.094 105.631,118.761 105.5,119.5 Z"/></g>
<g><path style="opacity:0.999" fill="#fefefe" d="M 114.5,124.5 C 115.492,124.328 116.158,124.662 116.5,125.5C 116.821,127.048 117.821,127.715 119.5,127.5C 120.733,129.796 122.733,131.13 125.5,131.5C 130.799,136.133 135.799,141.133 140.5,146.5C 142.341,148.849 143.674,151.515 144.5,154.5C 144.41,157.152 145.076,159.485 146.5,161.5C 146.41,164.152 147.076,166.485 148.5,168.5C 148.466,171.199 149.133,173.699 150.5,176C 214.166,176.5 277.832,176.667 341.5,176.5C 342.833,176.5 344.167,176.5 345.5,176.5C 345.833,176.5 346.167,176.5 346.5,176.5C 351.001,178.916 355.334,181.583 359.5,184.5C 360.52,187.367 362.186,189.867 364.5,192C 365.963,195.571 367.296,199.071 368.5,202.5C 369.791,207.043 369.458,211.377 367.5,215.5C 366.21,216.058 365.377,217.058 365,218.5C 364.503,221.146 364.336,223.813 364.5,226.5C 361.807,229.539 360.807,233.206 361.5,237.5C 359.058,242.892 357.058,248.559 355.5,254.5C 355.624,255.107 355.957,255.44 356.5,255.5C 356.5,256.167 356.5,256.833 356.5,257.5C 353.56,260.392 351.893,264.059 351.5,268.5C 351.543,269.416 351.876,270.083 352.5,270.5C 352.5,271.167 352.5,271.833 352.5,272.5C 351.25,272.577 350.417,273.244 350,274.5C 349.235,276.066 349.402,277.399 350.5,278.5C 350.5,279.167 350.167,279.5 349.5,279.5C 347.528,282.084 346.528,285.084 346.5,288.5C 344.409,293.191 343.076,298.191 342.5,303.5C 342.737,304.791 342.404,305.791 341.5,306.5C 339.659,308.849 338.326,311.515 337.5,314.5C 337.5,314.833 337.5,315.167 337.5,315.5C 332.347,319.81 327.014,323.977 321.5,328C 320.748,328.671 320.414,329.504 320.5,330.5C 320.167,330.5 319.833,330.5 319.5,330.5C 319.44,329.957 319.107,329.624 318.5,329.5C 314.513,331.876 310.18,333.043 305.5,333C 268.167,333.667 230.833,333.667 193.5,333C 190.382,332.127 187.382,330.961 184.5,329.5C 183.893,329.624 183.56,329.957 183.5,330.5C 183.167,330.5 182.833,330.5 182.5,330.5C 182.586,329.504 182.252,328.671 181.5,328C 179.595,326.579 177.595,325.412 175.5,324.5C 174.508,324.672 173.842,324.338 173.5,323.5C 173.938,323.565 174.272,323.399 174.5,323C 172.559,320.546 170.225,318.713 167.5,317.5C 164.798,311.436 162.131,305.436 159.5,299.5C 159.397,296.364 158.397,293.698 156.5,291.5C 156.5,291.167 156.5,290.833 156.5,290.5C 156.737,289.209 156.404,288.209 155.5,287.5C 155.5,287.167 155.5,286.833 155.5,286.5C 155.737,285.209 155.404,284.209 154.5,283.5C 154.074,279.573 153.074,275.907 151.5,272.5C 150.501,267.835 149.501,263.169 148.5,258.5C 147.901,254.979 146.568,251.979 144.5,249.5C 144.923,248.735 145.257,247.902 145.5,247C 144.521,244.567 143.855,242.067 143.5,239.5C 142.87,237.25 141.87,235.25 140.5,233.5C 140.5,233.167 140.5,232.833 140.5,232.5C 139.9,226.416 138.233,220.749 135.5,215.5C 133.638,209.032 131.638,202.698 129.5,196.5C 129.634,194.708 129.301,193.042 128.5,191.5C 128.5,191.167 128.5,190.833 128.5,190.5C 128.204,188.597 127.537,186.93 126.5,185.5C 126.5,184.833 126.5,184.167 126.5,183.5C 125.923,179.507 124.59,175.84 122.5,172.5C 123.098,164.687 120.098,158.354 113.5,153.5C 110.64,152.219 108.307,150.219 106.5,147.5C 104.929,146.691 103.262,146.357 101.5,146.5C 99.326,146.25 97.6594,145.25 96.5,143.5C 89.0151,136.624 88.6817,129.458 95.5,122C 97.7438,121.094 100.077,120.594 102.5,120.5C 106.691,121.263 110.691,122.596 114.5,124.5 Z"/></g>
<g><path style="opacity:0.557" fill="#6e6e6e" d="M 116.5,125.5 C 117.71,125.932 118.71,126.599 119.5,127.5C 117.821,127.715 116.821,127.048 116.5,125.5 Z"/></g>
<g><path style="opacity:0.682" fill="#7b7b7b" d="M 119.5,127.5 C 121.882,128.351 123.882,129.684 125.5,131.5C 122.733,131.13 120.733,129.796 119.5,127.5 Z"/></g>
<g><path style="opacity:0.263" fill="#777777" d="M 97.5,119.5 C 100.167,119.5 102.833,119.5 105.5,119.5C 109.272,119.884 112.272,121.55 114.5,124.5C 110.691,122.596 106.691,121.263 102.5,120.5C 100.077,120.594 97.7438,121.094 95.5,122C 88.6817,129.458 89.0151,136.624 96.5,143.5C 88.6416,139.086 86.8083,132.753 91,124.5C 92.7581,122.235 94.9248,120.568 97.5,119.5 Z"/></g>
<g><path style="opacity:0.147" fill="#b2b2b2" d="M 125.5,131.5 C 130.687,134.173 135.187,137.84 139,142.5C 139.791,143.745 140.291,145.078 140.5,146.5C 135.799,141.133 130.799,136.133 125.5,131.5 Z"/></g>
<g><path style="opacity:0.924" fill="#a9a9a9" d="M 101.5,146.5 C 103.262,146.357 104.929,146.691 106.5,147.5C 108.307,150.219 110.64,152.219 113.5,153.5C 113.5,153.833 113.5,154.167 113.5,154.5C 112.833,154.167 112.167,153.833 111.5,153.5C 108.129,151.154 104.796,148.821 101.5,146.5 Z"/></g>
<g><path style="opacity:0.004" fill="#000000" d="M 111.5,153.5 C 112.167,153.833 112.833,154.167 113.5,154.5C 113.5,154.833 113.5,155.167 113.5,155.5C 113.5,155.833 113.5,156.167 113.5,156.5C 112.094,156.027 111.427,155.027 111.5,153.5 Z"/></g>
<g><path style="opacity:0.004" fill="#000000" d="M 113.5,156.5 C 113.833,156.5 114.167,156.5 114.5,156.5C 114.315,157.17 113.981,157.17 113.5,156.5 Z"/></g>
<g><path style="opacity:0.133" fill="#686868" d="M 113.5,153.5 C 120.098,158.354 123.098,164.687 122.5,172.5C 121.972,171.279 121.305,170.113 120.5,169C 120.833,168.667 121.167,168.333 121.5,168C 119.9,166.392 118.567,164.559 117.5,162.5C 117.709,161.914 118.043,161.414 118.5,161C 116.714,159.804 115.381,158.304 114.5,156.5C 114.5,155.833 114.167,155.5 113.5,155.5C 113.5,155.167 113.5,154.833 113.5,154.5C 113.5,154.167 113.5,153.833 113.5,153.5 Z"/></g>
<g><path style="opacity:0.475" fill="#7c7c7c" d="M 144.5,154.5 C 145.924,156.515 146.59,158.848 146.5,161.5C 145.076,159.485 144.41,157.152 144.5,154.5 Z"/></g>
<g><path style="opacity:0.451" fill="#777777" d="M 146.5,161.5 C 147.924,163.515 148.59,165.848 148.5,168.5C 147.076,166.485 146.41,164.152 146.5,161.5 Z"/></g>
<g><path style="opacity:0.022" fill="#000000" d="M 345.5,176.5 C 344.167,176.5 342.833,176.5 341.5,176.5C 279.002,175.501 216.336,175.168 153.5,175.5C 158.463,174.372 163.63,173.705 169,173.5C 226.42,173.857 284.42,173.857 343,173.5C 343.698,174.691 344.531,175.691 345.5,176.5 Z"/></g>
<g><path style="opacity:0.461" fill="#828282" d="M 148.5,168.5 C 149.864,170.22 150.864,172.22 151.5,174.5C 151.957,175.298 152.624,175.631 153.5,175.5C 216.336,175.168 279.002,175.501 341.5,176.5C 277.832,176.667 214.166,176.5 150.5,176C 149.133,173.699 148.466,171.199 148.5,168.5 Z"/></g>
<g><path style="opacity:0.006" fill="#0e0e0e" d="M 122.5,172.5 C 124.59,175.84 125.923,179.507 126.5,183.5C 124.333,182.354 123,180.521 122.5,178C 122.317,176.15 122.317,174.317 122.5,172.5 Z"/></g>
<g><path style="opacity:0.031" fill="#4d4d4d" d="M 346.5,176.5 C 351.198,177.456 355.532,179.289 359.5,182C 361.141,183.129 362.141,184.629 362.5,186.5C 361.5,185.833 360.5,185.167 359.5,184.5C 355.334,181.583 351.001,178.916 346.5,176.5 Z"/></g>
<g><path style="opacity:0.004" fill="#000000" d="M 125.5,185.5 C 124.833,184.167 124.833,184.167 125.5,185.5 Z"/></g>
<g><path style="opacity:0.004" fill="#0c0c0c" d="M 125.5,185.5 C 125.833,185.5 126.167,185.5 126.5,185.5C 127.537,186.93 128.204,188.597 128.5,190.5C 126.273,189.599 125.273,187.933 125.5,185.5 Z"/></g>
<g><path style="opacity:0.929" fill="#a5a5a5" d="M 359.5,184.5 C 360.5,185.167 361.5,185.833 362.5,186.5C 366.333,191.353 368.333,196.686 368.5,202.5C 367.296,199.071 365.963,195.571 364.5,192C 362.186,189.867 360.52,187.367 359.5,184.5 Z"/></g>
<g><path style="opacity:0.004" fill="#040404" d="M 128.5,191.5 C 129.301,193.042 129.634,194.708 129.5,196.5C 127.655,195.005 127.322,193.338 128.5,191.5 Z"/></g>
<g><path style="opacity:0.005" fill="#101010" d="M 129.5,196.5 C 131.638,202.698 133.638,209.032 135.5,215.5C 135.5,216.167 135.5,216.833 135.5,217.5C 133.943,214.376 132.277,211.209 130.5,208C 130.957,207.586 131.291,207.086 131.5,206.5C 130.198,203.292 129.531,199.959 129.5,196.5 Z"/></g>
<g><path style="opacity:0.006" fill="#060606" d="M 135.5,218.5 C 136.738,220.214 137.405,222.214 137.5,224.5C 135.926,222.898 135.259,220.898 135.5,218.5 Z"/></g>
<g><path style="opacity:0.373" fill="#8a8a8a" d="M 135.5,215.5 C 138.233,220.749 139.9,226.416 140.5,232.5C 140.167,232.5 139.833,232.5 139.5,232.5C 138.766,231.292 138.433,229.959 138.5,228.5C 138.737,227.209 138.404,226.209 137.5,225.5C 137.5,225.167 137.5,224.833 137.5,224.5C 137.405,222.214 136.738,220.214 135.5,218.5C 135.5,218.167 135.5,217.833 135.5,217.5C 135.5,216.833 135.5,216.167 135.5,215.5 Z"/></g>
<g><path style="opacity:0.761" fill="#9f9f9f" d="M 367.5,215.5 C 367.258,219.479 366.258,223.146 364.5,226.5C 364.336,223.813 364.503,221.146 365,218.5C 365.377,217.058 366.21,216.058 367.5,215.5 Z"/></g>
<g><path style="opacity:0.006" fill="#101010" d="M 137.5,225.5 C 138.404,226.209 138.737,227.209 138.5,228.5C 137.733,227.828 137.066,226.995 136.5,226C 136.728,225.601 137.062,225.435 137.5,225.5 Z"/></g>
<g><path style="opacity:0.818" fill="#a5a5a5" d="M 364.5,226.5 C 364.074,230.427 363.074,234.093 361.5,237.5C 360.807,233.206 361.807,229.539 364.5,226.5 Z"/></g>
<g><path style="opacity:0.267" fill="#8b8b8b" d="M 140.5,233.5 C 141.87,235.25 142.87,237.25 143.5,239.5C 141.386,238.216 140.386,236.216 140.5,233.5 Z"/></g>
<g><path style="opacity:0.357" fill="#3d3d3d" d="M 139.5,232.5 C 139.833,232.5 140.167,232.5 140.5,232.5C 140.5,232.833 140.5,233.167 140.5,233.5C 140.386,236.216 141.386,238.216 143.5,239.5C 143.855,242.067 144.521,244.567 145.5,247C 145.257,247.902 144.923,248.735 144.5,249.5C 143.514,246.03 141.847,242.863 139.5,240C 139.667,237.333 139.667,234.833 139.5,232.5 Z"/></g>
<g><path style="opacity:0.212" fill="#8c8c8c" d="M 361.5,237.5 C 360.435,243.769 358.769,249.769 356.5,255.5C 355.957,255.44 355.624,255.107 355.5,254.5C 357.058,248.559 359.058,242.892 361.5,237.5 Z"/></g>
<g><path style="opacity:0.004" fill="#000000" d="M 144.5,251.5 C 145.404,252.209 145.737,253.209 145.5,254.5C 143.519,253.895 143.185,252.895 144.5,251.5 Z"/></g>
<g><path style="opacity:0.031" fill="#565656" d="M 144.5,249.5 C 146.568,251.979 147.901,254.979 148.5,258.5C 147.833,258.5 147.167,258.5 146.5,258.5C 146.844,257.317 146.178,256.484 144.5,256C 145.056,255.617 145.389,255.117 145.5,254.5C 145.737,253.209 145.404,252.209 144.5,251.5C 144.5,250.833 144.5,250.167 144.5,249.5 Z"/></g>
<g><path style="opacity:0.007" fill="#101010" d="M 146.5,258.5 C 147.167,258.5 147.833,258.5 148.5,258.5C 149.501,263.169 150.501,267.835 151.5,272.5C 149.054,271.608 148.388,270.108 149.5,268C 147.699,267.683 147.366,267.016 148.5,266C 146.709,263.894 146.042,261.394 146.5,258.5 Z"/></g>
<g><path style="opacity:0.024" fill="#a5a5a5" d="M 356.5,257.5 C 355.318,261.896 353.985,266.229 352.5,270.5C 351.876,270.083 351.543,269.416 351.5,268.5C 351.893,264.059 353.56,260.392 356.5,257.5 Z"/></g>
<g><path style="opacity:0.007" fill="#0b0b0b" d="M 151.5,272.5 C 153.074,275.907 154.074,279.573 154.5,283.5C 153.636,282.312 152.636,281.145 151.5,280C 151.203,277.554 151.203,275.054 151.5,272.5 Z"/></g>
<g><path style="opacity:0.012" fill="#727272" d="M 352.5,272.5 C 351.637,274.421 350.971,276.421 350.5,278.5C 349.402,277.399 349.235,276.066 350,274.5C 350.417,273.244 351.25,272.577 352.5,272.5 Z"/></g>
<g><path style="opacity:0.009" fill="#0f0f0f" d="M 154.5,283.5 C 155.404,284.209 155.737,285.209 155.5,286.5C 153.519,285.895 153.185,284.895 154.5,283.5 Z"/></g>
<g><path style="opacity:0.298" fill="#7d7d7d" d="M 349.5,279.5 C 349.072,282.785 348.072,285.785 346.5,288.5C 346.528,285.084 347.528,282.084 349.5,279.5 Z"/></g>
<g><path style="opacity:0.009" fill="#000000" d="M 155.5,287.5 C 156.404,288.209 156.737,289.209 156.5,290.5C 154.448,289.947 154.115,288.947 155.5,287.5 Z"/></g>
<g><path style="opacity:0.004" fill="#000000" d="M 154.5,291.5 C 155.833,292.167 155.833,292.167 154.5,291.5 Z"/></g>
<g><path style="opacity:0.004" fill="#000000" d="M 156.5,293.5 C 155.833,294.167 155.833,294.167 156.5,293.5 Z"/></g>
<g><path style="opacity:0.006" fill="#2b2b2b" d="M 156.5,291.5 C 158.397,293.698 159.397,296.364 159.5,299.5C 158.548,298.548 157.548,297.548 156.5,296.5C 157.653,295.313 157.653,294.313 156.5,293.5C 156.5,292.833 156.5,292.167 156.5,291.5 Z"/></g>
<g><path style="opacity:0.212" fill="#787878" d="M 346.5,288.5 C 345.924,293.809 344.591,298.809 342.5,303.5C 343.076,298.191 344.409,293.191 346.5,288.5 Z"/></g>
<g><path style="opacity:0.006" fill="#000000" d="M 159.5,302.5 C 160.338,302.842 160.672,303.508 160.5,304.5C 158.576,304.289 158.243,303.623 159.5,302.5 Z"/></g>
<g><path style="opacity:0.392" fill="#818181" d="M 159.5,299.5 C 162.131,305.436 164.798,311.436 167.5,317.5C 163.913,314.002 161.579,309.668 160.5,304.5C 160.672,303.508 160.338,302.842 159.5,302.5C 159.5,301.5 159.5,300.5 159.5,299.5 Z"/></g>
<g><path style="opacity:0.071" fill="#7c7c7c" d="M 341.5,306.5 C 341.206,309.754 339.873,312.421 337.5,314.5C 338.326,311.515 339.659,308.849 341.5,306.5 Z"/></g>
<g><path style="opacity:0.035" fill="#676767" d="M 167.5,317.5 C 170.225,318.713 172.559,320.546 174.5,323C 174.272,323.399 173.938,323.565 173.5,323.5C 170.614,322.404 168.614,320.404 167.5,317.5 Z"/></g>
<g><path style="opacity:0.008" fill="#8b8b8b" d="M 337.5,315.5 C 332.749,321.587 327.082,326.587 320.5,330.5C 320.414,329.504 320.748,328.671 321.5,328C 327.014,323.977 332.347,319.81 337.5,315.5 Z"/></g>
<g><path style="opacity:0.376" fill="#999999" d="M 175.5,324.5 C 177.595,325.412 179.595,326.579 181.5,328C 182.252,328.671 182.586,329.504 182.5,330.5C 179.507,329.167 177.173,327.167 175.5,324.5 Z"/></g>
<g><path style="opacity:0.726" fill="#bababa" d="M 319.5,330.5 C 316.044,333.208 312.044,334.541 307.5,334.5C 270.167,334.5 232.833,334.5 195.5,334.5C 191.058,334.268 187.058,332.935 183.5,330.5C 183.56,329.957 183.893,329.624 184.5,329.5C 187.382,330.961 190.382,332.127 193.5,333C 230.833,333.667 268.167,333.667 305.5,333C 310.18,333.043 314.513,331.876 318.5,329.5C 319.107,329.624 319.44,329.957 319.5,330.5 Z"/></g>
<g><path style="opacity:0.004" fill="#1f1f1f" d="M 195.5,334.5 C 232.833,334.5 270.167,334.5 307.5,334.5C 305.369,335.314 303.036,335.814 300.5,336C 267.833,336.667 235.167,336.667 202.5,336C 199.964,335.814 197.631,335.314 195.5,334.5 Z"/></g>
<g><path style="opacity:0.004" fill="#000000" d="M 214.5,338.5 C 228.661,337.339 242.994,337.173 257.5,338C 243.171,338.5 228.837,338.667 214.5,338.5 Z"/></g>
<g><path style="opacity:0.005" fill="#171717" d="M 219.5,354.5 C 211.833,354.5 204.167,354.5 196.5,354.5C 196.5,354.167 196.5,353.833 196.5,353.5C 203.753,351.111 211.087,350.944 218.5,353C 219.056,353.383 219.389,353.883 219.5,354.5 Z"/></g>
<g><path style="opacity:0.004" fill="#000000" d="M 196.5,353.5 C 195.833,352.167 195.833,352.167 196.5,353.5 Z"/></g>
<g><path style="opacity:0.076" fill="#2e2e2e" d="M 306.5,354.5 C 298.833,354.5 291.167,354.5 283.5,354.5C 285.807,352.953 288.473,352.287 291.5,352.5C 295.398,353.15 299.231,353.15 303,352.5C 304.699,352.387 305.866,353.053 306.5,354.5 Z"/></g>
<g><path style="opacity:0.986" fill="#fcfcfc" d="M 196.5,354.5 C 204.167,354.5 211.833,354.5 219.5,354.5C 220.791,354.263 221.791,354.596 222.5,355.5C 228.661,360.796 229.995,367.13 226.5,374.5C 224.019,375.72 222.019,377.386 220.5,379.5C 219.5,379.5 218.5,379.5 217.5,379.5C 210.296,378.802 202.963,378.136 195.5,377.5C 194.893,377.624 194.56,377.957 194.5,378.5C 193.508,378.672 192.842,378.338 192.5,377.5C 192.938,377.565 193.272,377.399 193.5,377C 188.741,372.509 187.241,367.009 189,360.5C 191.114,357.879 193.614,355.879 196.5,354.5 Z"/></g>
<g><path style="opacity:0.986" fill="#fbfbfb" d="M 283.5,354.5 C 291.167,354.5 298.833,354.5 306.5,354.5C 308.972,355.909 311.305,357.576 313.5,359.5C 314.373,363.768 314.706,368.102 314.5,372.5C 314.672,373.492 314.338,374.158 313.5,374.5C 312.833,374.833 312.167,375.167 311.5,375.5C 310.317,376.504 308.984,377.338 307.5,378C 299.323,378.171 291.323,378.671 283.5,379.5C 281.716,379.107 280.05,378.441 278.5,377.5C 278.446,375.368 277.446,374.035 275.5,373.5C 275.5,373.167 275.5,372.833 275.5,372.5C 274.676,369.236 274.342,365.902 274.5,362.5C 274.328,361.508 274.662,360.842 275.5,360.5C 277.908,358.084 280.574,356.084 283.5,354.5 Z"/></g>
<g><path style="opacity:0.02" fill="#505050" d="M 306.5,354.5 C 310.286,354.47 312.953,356.137 314.5,359.5C 314.167,359.5 313.833,359.5 313.5,359.5C 311.305,357.576 308.972,355.909 306.5,354.5 Z"/></g>
<g><path style="opacity:0.353" fill="#5e5e5e" d="M 283.5,354.5 C 280.574,356.084 277.908,358.084 275.5,360.5C 276.706,356.635 279.373,354.635 283.5,354.5 Z"/></g>
<g><path style="opacity:0.051" fill="#acacac" d="M 222.5,355.5 C 229.108,358.804 231.275,364.137 229,371.5C 228.487,372.527 227.987,373.527 227.5,374.5C 227.167,374.5 226.833,374.5 226.5,374.5C 229.995,367.13 228.661,360.796 222.5,355.5 Z"/></g>
<g><path style="opacity:0.469" fill="#909090" d="M 313.5,359.5 C 313.833,359.5 314.167,359.5 314.5,359.5C 317.053,363.946 317.053,368.28 314.5,372.5C 314.706,368.102 314.373,363.768 313.5,359.5 Z"/></g>
<g><path style="opacity:0.004" fill="#000000" d="M 184.5,366.5 C 185.525,366.897 185.692,367.563 185,368.5C 184.536,367.906 184.369,367.239 184.5,366.5 Z"/></g>
<g><path style="opacity:0.011" fill="#050505" d="M 187.5,362.5 C 187.5,365.5 187.5,368.5 187.5,371.5C 186.761,371.631 186.094,371.464 185.5,371C 186.128,368.061 186.795,365.228 187.5,362.5 Z"/></g>
<g><path style="opacity:0.004" fill="#000000" d="M 230.5,367.5 C 231.833,368.167 231.833,368.167 230.5,367.5 Z"/></g>
<g><path style="opacity:0.176" fill="#838383" d="M 196.5,354.5 C 193.614,355.879 191.114,357.879 189,360.5C 187.241,367.009 188.741,372.509 193.5,377C 193.272,377.399 192.938,377.565 192.5,377.5C 190.11,376.109 188.443,374.109 187.5,371.5C 187.5,368.5 187.5,365.5 187.5,362.5C 188.584,357.753 191.584,355.086 196.5,354.5 Z"/></g>
<g><path style="opacity:0.012" fill="#333333" d="M 274.5,362.5 C 274.342,365.902 274.676,369.236 275.5,372.5C 274.883,372.389 274.383,372.056 274,371.5C 273.195,368.304 273.362,365.304 274.5,362.5 Z"/></g>
<g><path style="opacity:0.004" fill="#282828" d="M 275.5,373.5 C 277.446,374.035 278.446,375.368 278.5,377.5C 277.026,376.564 276.026,375.23 275.5,373.5 Z"/></g>
<g><path style="opacity:0.004" fill="#191919" d="M 313.5,374.5 C 313.573,376.027 312.906,377.027 311.5,377.5C 311.5,376.833 311.5,376.167 311.5,375.5C 312.167,375.167 312.833,374.833 313.5,374.5 Z"/></g>
<g><path style="opacity:0.016" fill="#595959" d="M 226.5,374.5 C 226.833,374.5 227.167,374.5 227.5,374.5C 225.704,376.9 223.37,378.567 220.5,379.5C 222.019,377.386 224.019,375.72 226.5,374.5 Z"/></g>
<g><path style="opacity:0.141" fill="#818181" d="M 311.5,375.5 C 311.5,376.167 311.5,376.833 311.5,377.5C 302.362,380.578 293.028,381.245 283.5,379.5C 291.323,378.671 299.323,378.171 307.5,378C 308.984,377.338 310.317,376.504 311.5,375.5 Z"/></g>
<g><path style="opacity:0.008" fill="#7b7b7b" d="M 217.5,379.5 C 214.518,380.165 211.352,380.498 208,380.5C 203.228,380.692 198.728,380.025 194.5,378.5C 194.56,377.957 194.893,377.624 195.5,377.5C 202.963,378.136 210.296,378.802 217.5,379.5 Z"/></g>
<g><path style="opacity:0.004" fill="#000000" d="M 305.5,380.5 C 306.833,381.167 306.833,381.167 305.5,380.5 Z"/></g>
<g><path style="opacity:0.004" fill="#000000" d="M 201.5,382.5 C 205.981,381.352 210.648,381.185 215.5,382C 210.845,382.499 206.179,382.666 201.5,382.5 Z"/></g>
<g><path style="opacity:0.004" fill="#000000" d="M 287.5,381.5 C 288.833,382.167 288.833,382.167 287.5,381.5 Z"/></g>
<g><path style="opacity:0.004" fill="#000000" d="M 292.5,382.5 C 295.304,381.362 298.304,381.195 301.5,382C 298.518,382.498 295.518,382.665 292.5,382.5 Z"/></g>
<g><path style="opacity:0.004" fill="#000000" d="M 0.5,496.5 C 1.52502,496.897 1.69169,497.563 1,498.5C 0.535656,497.906 0.368989,497.239 0.5,496.5 Z"/></g>
<g><path style="opacity:0.004" fill="#000000" d="M 499.5,497.5 C 499.5,498.167 499.5,498.833 499.5,499.5C 499.167,499.5 498.833,499.5 498.5,499.5C 498.328,498.508 498.662,497.842 499.5,497.5 Z"/></g>
</svg>
